<svg xmlns="http://www.w3.org/2000/svg" width="123" height="123" viewBox="0 0 123 123" fill="none">
  <g filter="url(#filter0_di_192_4793)">
    <path d="M115.385 107.305L94.0654 86.1416C102.341 75.8152 106.349 62.7082 105.264 49.5155C104.18 36.3228 98.0862 24.0473 88.2356 15.2131C78.3851 6.37881 65.5268 1.6573 52.3046 2.01939C39.0824 2.38147 26.5013 7.79962 17.1482 17.1597C7.79522 26.5199 2.38118 39.1105 2.01937 52.3428C1.65756 65.5751 6.37549 78.4432 15.203 88.3012C24.0306 98.1592 36.2968 104.258 49.4794 105.343C62.6621 106.428 75.7592 102.417 86.0777 94.1354L107.225 115.299C107.759 115.838 108.395 116.266 109.095 116.558C109.795 116.85 110.547 117 111.305 117C112.064 117 112.815 116.85 113.515 116.558C114.215 116.266 114.851 115.838 115.385 115.299C116.421 114.227 117 112.793 117 111.302C117 109.811 116.421 108.377 115.385 107.305ZM53.8394 94.1354C45.8834 94.1354 38.1061 91.7744 31.4909 87.3509C24.8758 82.9275 19.7199 76.6402 16.6753 69.2843C13.6307 61.9284 12.8341 53.8341 14.3862 46.0251C15.9383 38.216 19.7695 31.043 25.3952 25.413C31.0209 19.783 38.1885 15.9489 45.9916 14.3956C53.7947 12.8423 61.8829 13.6395 69.2332 16.6864C76.5836 19.7334 82.866 24.8932 87.2861 31.5133C91.7062 38.1335 94.0654 45.9167 94.0654 53.8787C94.0654 64.5555 89.8274 74.7949 82.2835 82.3445C74.7396 89.8941 64.508 94.1354 53.8394 94.1354Z" fill="#3E3A39"/>
    <path d="M93.6753 85.8289L93.3941 86.1797L93.7132 86.4964L115.026 107.652C115.027 107.654 115.028 107.655 115.029 107.656C115.973 108.635 116.5 109.942 116.5 111.302C116.5 112.663 115.972 113.97 115.028 114.949C114.541 115.44 113.961 115.83 113.323 116.096C112.683 116.363 111.998 116.5 111.305 116.5C110.613 116.5 109.927 116.363 109.288 116.096C108.648 115.83 108.068 115.439 107.58 114.947L107.579 114.945L86.4314 93.782L86.1144 93.4648L85.7647 93.7455C75.546 101.947 62.5755 105.919 49.5204 104.845C36.4654 103.77 24.3178 97.7304 15.5755 87.9676C6.83326 78.2049 2.16087 65.461 2.51918 52.3565C2.8775 39.2519 8.23928 26.7828 17.5019 17.5132C26.7646 8.2435 39.224 2.87778 52.3183 2.5192C65.4125 2.16062 78.1465 6.83643 87.9018 15.5853C97.6571 24.3342 103.692 36.4911 104.766 49.5565C105.84 62.6218 101.871 75.6023 93.6753 85.8289ZM31.213 87.7666C37.9104 92.245 45.7844 94.6354 53.8394 94.6354C64.6407 94.6354 74.9996 90.3413 82.6372 82.6979C90.2748 75.0545 94.5654 64.688 94.5654 53.8787C94.5654 45.8179 92.177 37.9381 87.702 31.2357C83.227 24.5333 76.8665 19.3094 69.4247 16.2246C61.9829 13.1397 53.7942 12.3326 45.894 13.9052C37.9939 15.4779 30.7372 19.3596 25.0415 25.0596C19.3459 30.7595 15.4672 38.0216 13.8958 45.9276C12.3244 53.8335 13.1309 62.0283 16.2133 69.4755C19.2957 76.9228 24.5156 83.2881 31.213 87.7666Z" stroke="#3E3A39"/>
  </g>
  <defs>
    <filter id="filter0_di_192_4793" x="0" y="0" width="123" height="123" filterUnits="userSpaceOnUse" color-interpolation-filters="sRGB">
      <feFlood flood-opacity="0" result="BackgroundImageFix"/>
      <feColorMatrix in="SourceAlpha" type="matrix" values="0 0 0 0 0 0 0 0 0 0 0 0 0 0 0 0 0 0 127 0" result="hardAlpha"/>
      <feOffset dx="2" dy="2"/>
      <feGaussianBlur stdDeviation="2"/>
      <feComposite in2="hardAlpha" operator="out"/>
      <feColorMatrix type="matrix" values="0 0 0 0 0 0 0 0 0 0 0 0 0 0 0 0 0 0 0.25 0"/>
      <feBlend mode="normal" in2="BackgroundImageFix" result="effect1_dropShadow_192_4793"/>
      <feBlend mode="normal" in="SourceGraphic" in2="effect1_dropShadow_192_4793" result="shape"/>
      <feColorMatrix in="SourceAlpha" type="matrix" values="0 0 0 0 0 0 0 0 0 0 0 0 0 0 0 0 0 0 127 0" result="hardAlpha"/>
      <feOffset dx="2" dy="2"/>
      <feGaussianBlur stdDeviation="1.5"/>
      <feComposite in2="hardAlpha" operator="arithmetic" k2="-1" k3="1"/>
      <feColorMatrix type="matrix" values="0 0 0 0 1 0 0 0 0 1 0 0 0 0 1 0 0 0 0.7 0"/>
      <feBlend mode="normal" in2="shape" result="effect2_innerShadow_192_4793"/>
    </filter>
  </defs>
</svg>