<svg xmlns="http://www.w3.org/2000/svg" width="19" height="21" viewBox="0 0 19 21" fill="none">
  <path fill-rule="evenodd" clip-rule="evenodd" d="M8.19584 0.844727H10.1605C11.8703 0.844727 13.2247 0.844727 14.2842 0.987052C15.3744 1.13403 16.2572 1.44287 16.954 2.13868C17.6498 2.83542 17.9586 3.71822 18.1056 4.80845C18.2479 5.86891 18.2479 7.2224 18.2479 8.93217V12.7573C18.2479 14.4671 18.2479 15.8215 18.1056 16.881C17.9586 17.9712 17.6498 18.854 16.954 19.5508C16.2572 20.2466 15.3744 20.5554 14.2842 20.7024C13.2237 20.8447 11.8703 20.8447 10.1605 20.8447H8.19584C6.48607 20.8447 5.13165 20.8447 4.07212 20.7024C2.98189 20.5554 2.0991 20.2466 1.40235 19.5508C0.706538 18.854 0.397701 17.9712 0.250724 16.881C0.108399 15.8205 0.108398 14.4671 0.108398 12.7573V8.93217C0.108398 7.2224 0.108399 5.86798 0.250724 4.80845C0.397701 3.71822 0.706538 2.83542 1.40235 2.13868C2.0991 1.44287 2.98189 1.13403 4.07212 0.987052C5.13258 0.844727 6.48607 0.844727 8.19584 0.844727ZM4.25724 2.37031C3.32142 2.49589 2.78189 2.73217 2.38747 3.12566C1.99491 3.51915 1.75863 4.05868 1.63305 4.99449C1.50468 5.95077 1.50282 7.21031 1.50282 8.98426V12.7052C1.50282 14.4791 1.50468 15.7396 1.63305 16.6959C1.75863 17.6308 1.99491 18.1703 2.3884 18.5638C2.78189 18.9573 3.32142 19.1936 4.25724 19.3191C5.21351 19.4475 6.47305 19.4494 8.247 19.4494H10.1075C11.8814 19.4494 13.1419 19.4475 14.0982 19.3191C15.033 19.1936 15.5726 18.9573 15.9661 18.5638C16.3596 18.1703 16.5958 17.6308 16.7214 16.695C16.8498 15.7396 16.8517 14.4791 16.8517 12.7052V8.98426C16.8517 7.21031 16.8498 5.95077 16.7214 4.99356C16.5958 4.05868 16.3596 3.51915 15.9661 3.12566C15.5726 2.73217 15.033 2.49589 14.0972 2.37031C13.1419 2.24194 11.8814 2.24008 10.1075 2.24008H8.247C6.47305 2.24008 5.21444 2.24194 4.25724 2.37031ZM4.75956 8.98426C4.75956 8.79923 4.83307 8.62177 4.9639 8.49093C5.09474 8.36009 5.2722 8.28659 5.45724 8.28659H12.8991C13.0841 8.28659 13.2616 8.36009 13.3924 8.49093C13.5233 8.62177 13.5968 8.79923 13.5968 8.98426C13.5968 9.1693 13.5233 9.34675 13.3924 9.47759C13.2616 9.60843 13.0841 9.68194 12.8991 9.68194H5.45724C5.2722 9.68194 5.09474 9.60843 4.9639 9.47759C4.83307 9.34675 4.75956 9.1693 4.75956 8.98426ZM4.75956 12.7052C4.75956 12.5202 4.83307 12.3427 4.9639 12.2119C5.09474 12.081 5.2722 12.0075 5.45724 12.0075H10.1084C10.2934 12.0075 10.4709 12.081 10.6017 12.2119C10.7326 12.3427 10.8061 12.5202 10.8061 12.7052C10.8061 12.8902 10.7326 13.0677 10.6017 13.1985C10.4709 13.3294 10.2934 13.4029 10.1084 13.4029H5.45724C5.2722 13.4029 5.09474 13.3294 4.9639 13.1985C4.83307 13.0677 4.75956 12.8902 4.75956 12.7052Z" fill="#888888"/>
</svg>