<svg xmlns="http://www.w3.org/2000/svg" width="21" height="24" viewBox="0 0 21 24" fill="none">
  <path fill-rule="evenodd" clip-rule="evenodd" d="M7.67986 1.94648C7.79922 1.72917 7.8315 1.47095 7.76961 1.22864C7.70772 0.986327 7.55673 0.779764 7.34985 0.654393C7.14297 0.529022 6.89715 0.495112 6.66647 0.560122C6.43579 0.625133 6.23914 0.783739 6.11979 1.00105L3.71967 5.36766C3.68464 5.43169 3.65685 5.4998 3.63687 5.57061H3.29965C2.61868 5.57072 1.95442 5.79211 1.39795 6.20441C0.841489 6.61671 0.420068 7.19973 0.191484 7.87354C-0.0371007 8.54734 -0.0616564 9.27892 0.121184 9.96795C0.304025 10.657 0.685309 11.2697 1.21275 11.7222L2.01319 17.5019L2.54961 20.1403C2.70626 20.912 3.08523 21.6144 3.63507 22.152C4.18491 22.6897 4.87896 23.0365 5.62296 23.1455C8.85952 23.6182 12.1405 23.6182 15.377 23.1455C16.121 23.0365 16.8151 22.6897 17.3649 22.152C17.9148 21.6144 18.2937 20.912 18.4504 20.1403L18.9868 17.5019L19.7873 11.7222C20.3147 11.2697 20.696 10.657 20.8788 9.96795C21.0617 9.27892 21.0371 8.54734 20.8085 7.87354C20.5799 7.19973 20.1585 6.61671 19.602 6.20441C19.0456 5.79211 18.3813 5.57072 17.7003 5.57061H17.3631C17.3427 5.50019 17.3145 5.43251 17.2791 5.36892L14.879 1.00105C14.8222 0.889032 14.7445 0.790171 14.6506 0.710359C14.5567 0.630548 14.4484 0.571419 14.3323 0.536497C14.2161 0.501576 14.0944 0.491576 13.9745 0.507095C13.8546 0.522614 13.7389 0.563334 13.6343 0.626827C13.5297 0.69032 13.4383 0.775287 13.3656 0.876663C13.2929 0.978038 13.2404 1.09375 13.2112 1.21689C13.182 1.34004 13.1767 1.4681 13.1956 1.59345C13.2146 1.71879 13.2573 1.83885 13.3213 1.94648L15.3134 5.57061H5.68777L7.67986 1.94648ZM17.8612 12.5C17.8076 12.5026 17.754 12.5038 17.7003 12.5037H3.29965C3.24565 12.5037 3.19165 12.5025 3.14004 12.5L3.78567 17.1678L4.3101 19.7457C4.38971 20.1377 4.58224 20.4945 4.86156 20.7676C5.14087 21.0407 5.49344 21.2169 5.87137 21.2723C8.94232 21.721 12.0577 21.721 15.1286 21.2723C15.5064 21.217 15.8588 21.041 16.1381 20.7681C16.4174 20.4953 16.6101 20.1388 16.6899 19.747L17.2143 17.1678L17.8612 12.5ZM1.79958 9.03718C1.79958 8.16739 2.47161 7.46147 3.29965 7.46147H17.7003C18.0982 7.46147 18.4797 7.62748 18.7611 7.92298C19.0424 8.21848 19.2004 8.61927 19.2004 9.03718C19.2004 9.45508 19.0424 9.85587 18.7611 10.1514C18.4797 10.4469 18.0982 10.6129 17.7003 10.6129H3.29965C2.47161 10.6129 1.79958 9.90697 1.79958 9.03718Z" fill="#111111"/>
  <path d="M8.75 14.0909C8.94891 14.0909 9.13968 14.1735 9.28033 14.3206C9.42098 14.4676 9.5 14.667 9.5 14.875V16.9659C9.5 17.1739 9.42098 17.3733 9.28033 17.5203C9.13968 17.6674 8.94891 17.75 8.75 17.75C8.55109 17.75 8.36032 17.6674 8.21967 17.5203C8.07902 17.3733 8 17.1739 8 16.9659V14.875C8 14.667 8.07902 14.4676 8.21967 14.3206C8.36032 14.1735 8.55109 14.0909 8.75 14.0909ZM13.5 14.875C13.5 14.667 13.421 14.4676 13.2803 14.3206C13.1397 14.1735 12.9489 14.0909 12.75 14.0909C12.5511 14.0909 12.3603 14.1735 12.2197 14.3206C12.079 14.4676 12 14.667 12 14.875V16.9659C12 17.1739 12.079 17.3733 12.2197 17.5203C12.3603 17.6674 12.5511 17.75 12.75 17.75C12.9489 17.75 13.1397 17.6674 13.2803 17.5203C13.421 17.3733 13.5 17.1739 13.5 16.9659V14.875Z" fill="#111111"/>
</svg>