<svg xmlns="http://www.w3.org/2000/svg" width="20" height="20" viewBox="0 0 20 20" fill="none">
  <path d="M19.7192 18.3076L16.0114 14.6298C17.4506 12.8353 18.1476 10.5575 17.959 8.26486C17.7705 5.97222 16.7106 3.83897 14.9975 2.30375C13.2844 0.768522 11.0481 -0.0519857 8.74862 0.0109373C6.4491 0.0738603 4.26109 1.01543 2.63448 2.64204C1.00786 4.26866 0.066292 6.45667 0.00336896 8.75619C-0.059554 11.0557 0.760954 13.2919 2.29618 15.0051C3.8314 16.7182 5.96466 17.778 8.25729 17.9666C10.5499 18.1552 12.8277 17.4582 14.6222 16.0189L18.3 19.6968C18.3929 19.7904 18.5035 19.8648 18.6253 19.9155C18.747 19.9663 18.8777 19.9924 19.0096 19.9924C19.1415 19.9924 19.2722 19.9663 19.3939 19.9155C19.5157 19.8648 19.6263 19.7904 19.7192 19.6968C19.8993 19.5104 20 19.2614 20 19.0022C20 18.743 19.8993 18.4939 19.7192 18.3076ZM9.01554 16.0189C7.63189 16.0189 6.27932 15.6087 5.12886 14.8399C3.9784 14.0712 3.08172 12.9786 2.55223 11.7003C2.02273 10.422 1.88419 9.01535 2.15412 7.65829C2.42406 6.30123 3.09035 5.05469 4.06873 4.0763C5.04712 3.09792 6.29366 2.43163 7.65072 2.16169C9.00778 1.89175 10.4144 2.0303 11.6927 2.55979C12.9711 3.08929 14.0637 3.98597 14.8324 5.13643C15.6011 6.28689 16.0114 7.63946 16.0114 9.02311C16.0114 10.8785 15.2743 12.6579 13.9623 13.9699C12.6504 15.2819 10.871 16.0189 9.01554 16.0189Z" fill="black"/>
</svg>