<svg xmlns="http://www.w3.org/2000/svg" width="23" height="22" viewBox="0 0 23 22" fill="none">
  <path d="M21.5 18.807V11.4243C21.5 10.8294 21.3774 10.2408 21.1396 9.69411C20.9017 9.14745 20.5537 8.65426 20.1167 8.24452L13.0311 1.60307C12.6181 1.21589 12.0702 1 11.5006 1C10.9309 1 10.383 1.21589 9.97 1.60307L2.88333 8.24452C2.44628 8.65426 2.09826 9.14745 1.86045 9.69411C1.62264 10.2408 1.5 10.8294 1.5 11.4243V18.807C1.5 19.3886 1.73413 19.9464 2.15087 20.3577C2.56762 20.769 3.13285 21 3.72222 21H19.2778C19.8671 21 20.4324 20.769 20.8491 20.3577C21.2659 19.9464 21.5 19.3886 21.5 18.807Z" stroke="black" stroke-width="2" stroke-linecap="round" stroke-linejoin="round"/>
</svg>