<svg xmlns="http://www.w3.org/2000/svg" width="22" height="20" viewBox="0 0 22 20" fill="none">
  <g clip-path="url(#clip0_112_2993)">
    <path d="M13.574 16.322L13.4811 16.2042C12.9538 16.6202 12.4928 16.9766 12.0503 17.2355L12.0501 17.2356C11.6089 17.4943 11.272 17.6 11 17.6C10.7281 17.6 10.3913 17.4934 9.94965 17.2355C9.50712 16.9766 9.04613 16.6202 8.51891 16.2042L8.51876 16.2041C8.22716 15.9747 7.93068 15.7453 7.63265 15.5153L7.63254 15.5152C6.37669 14.5478 5.10225 13.5641 4.05021 12.3805C2.77888 10.9473 1.9 9.2872 1.9 7.13701C1.9 5.04214 3.08305 3.29299 4.68634 2.56044L4.68637 2.56043C6.23338 1.85314 8.33245 2.02607 10.3519 4.12501L10.352 4.1251C10.436 4.21221 10.5366 4.28149 10.6479 4.32881C10.7593 4.37614 10.879 4.40053 11 4.40053C11.121 4.40053 11.2407 4.37614 11.3521 4.32881C11.4634 4.28149 11.564 4.21221 11.648 4.1251L11.6481 4.12501C13.6675 2.02607 15.7666 1.85314 17.3136 2.56043L17.3137 2.56044C18.9169 3.29298 20.1 5.04313 20.1 7.13701C20.1 9.28724 19.2221 10.9473 17.9498 12.3804C16.8978 13.5641 15.6233 14.5477 14.3675 15.5152L14.3674 15.5153C14.325 15.5479 14.2826 15.5806 14.2403 15.6133C13.9851 15.8101 13.7304 16.0065 13.4808 16.2045L13.574 16.322ZM13.574 16.322C13.8227 16.1247 14.0766 15.9289 14.3319 15.732C14.3742 15.6994 14.4166 15.6667 14.459 15.634L8.426 16.322C8.952 16.737 9.421 17.1 9.874 17.365C10.326 17.629 10.69 17.75 11 17.75C11.31 17.75 11.674 17.63 12.126 17.365C12.579 17.1 13.048 16.737 13.574 16.322ZM10.7066 4.19077C10.6138 4.15133 10.53 4.09359 10.46 4.02101L18.062 12.48C19.351 11.028 20.25 9.33401 20.25 7.13701C20.25 4.98701 19.035 3.18201 17.376 2.42401C15.764 1.68701 13.598 1.88201 11.54 4.02101C11.47 4.09359 11.3862 4.15133 11.2934 4.19077C11.2006 4.2302 11.1008 4.25053 11 4.25053C10.8992 4.25053 10.7994 4.2302 10.7066 4.19077ZM3.93767 0.922573L3.93749 0.922654C1.66794 1.96312 0.1 4.36987 0.1 7.13801C0.1 9.84982 1.23113 11.9178 2.70484 13.5766C3.8818 14.9019 5.32028 16.0092 6.57954 16.9779C6.86547 17.1978 7.14179 17.4113 7.40395 17.6187L7.40419 17.6189C7.91592 18.0218 8.47386 18.4584 9.04123 18.7905L9.0414 18.7906C9.60874 19.1216 10.2719 19.401 11 19.401C11.7281 19.401 12.3913 19.1216 12.9586 18.7906L12.9587 18.7905C13.5271 18.4584 14.0842 18.0218 14.5958 17.6189L14.5958 17.6188C14.8692 17.4034 15.144 17.1898 15.4203 16.9781L15.4205 16.9779C16.6787 16.0092 18.1182 14.901 19.2951 13.5767L19.2951 13.5766C20.7689 11.9178 21.9 9.84983 21.9 7.13801C21.9 4.36992 20.3331 1.96308 18.0624 0.924597C15.9346 -0.0485563 13.3271 0.234938 11 2.25993C8.67299 0.233941 6.06541 -0.0495607 3.93767 0.922573Z" fill="#111111" stroke="#111111" stroke-width="0.3"/>
  </g>
  <defs>
    <clipPath id="clip0_112_2993">
      <rect width="22" height="20" fill="white"/>
    </clipPath>
  </defs>
</svg>