<svg xmlns="http://www.w3.org/2000/svg" width="22" height="23" viewBox="0 0 22 23" fill="none">
  <path fill-rule="evenodd" clip-rule="evenodd" d="M7.91304 1.44648C8.03331 1.22917 8.06584 0.970952 8.00348 0.72864C7.94111 0.486327 7.78896 0.279764 7.58049 0.154393C7.37202 0.0290216 7.12431 -0.0048885 6.89185 0.0601222C6.6594 0.125133 6.46124 0.283739 6.34097 0.50105L3.92239 4.86766C3.88708 4.93169 3.85908 4.9998 3.83895 5.07061H3.49914C2.81293 5.07072 2.14356 5.29211 1.58281 5.70441C1.02206 6.11671 0.597402 6.69973 0.36706 7.37354C0.136717 8.04734 0.111972 8.77892 0.296219 9.46795C0.480466 10.157 0.864683 10.7697 1.39618 11.2222L2.20278 17.0019L2.74333 19.6403C2.90118 20.412 3.28307 21.1144 3.83714 21.652C4.3912 22.1897 5.09059 22.5365 5.84032 22.6455C9.10177 23.1182 12.408 23.1182 15.6694 22.6455C16.4191 22.5365 17.1185 22.1897 17.6726 21.652C18.2267 21.1144 18.6086 20.412 18.7664 19.6403L19.307 17.0019L20.1136 11.2222C20.6451 10.7697 21.0293 10.157 21.2135 9.46795C21.3978 8.77892 21.373 8.04734 21.1427 7.37354C20.9123 6.69973 20.4877 6.11671 19.9269 5.70441C19.3662 5.29211 18.6968 5.07072 18.0106 5.07061H17.6708C17.6502 5.00019 17.6218 4.93251 17.5861 4.86892L15.1676 0.50105C15.1103 0.389032 15.0321 0.290171 14.9374 0.210359C14.8428 0.130548 14.7336 0.0714187 14.6166 0.0364971C14.4996 0.00157556 14.377 -0.00842372 14.2561 0.00709529C14.1353 0.0226143 14.0187 0.0633338 13.9133 0.126827C13.8079 0.19032 13.7158 0.275287 13.6425 0.376663C13.5693 0.478038 13.5164 0.593748 13.487 0.716895C13.4575 0.840041 13.4522 0.968103 13.4713 1.09345C13.4903 1.21879 13.5334 1.33885 13.5979 1.44648L15.6053 5.07061H5.90562L7.91304 1.44648ZM18.1727 12C18.1187 12.0026 18.0646 12.0038 18.0106 12.0037H3.49914C3.44472 12.0037 3.3903 12.0025 3.3383 12L3.9889 16.6678L4.51736 19.2457C4.59758 19.6377 4.79159 19.9945 5.07306 20.2676C5.35452 20.5407 5.7098 20.7169 6.09064 20.7723C9.18521 21.221 12.3245 21.221 15.4191 20.7723C15.7998 20.717 16.1549 20.541 16.4364 20.2681C16.7178 19.9953 16.9119 19.6388 16.9924 19.247L17.5208 16.6678L18.1727 12ZM1.98752 8.53718C1.98752 7.66739 2.66473 6.96147 3.49914 6.96147H18.0106C18.4115 6.96147 18.796 7.12748 19.0795 7.42298C19.363 7.71848 19.5222 8.11927 19.5222 8.53718C19.5222 8.95508 19.363 9.35587 19.0795 9.65137C18.796 9.94688 18.4115 10.1129 18.0106 10.1129H3.49914C2.66473 10.1129 1.98752 9.40697 1.98752 8.53718Z" fill="white"/>
  <path d="M8.99141 13.5909C9.19185 13.5909 9.38409 13.6735 9.52582 13.8206C9.66755 13.9676 9.74718 14.167 9.74718 14.375V16.4659C9.74718 16.6739 9.66755 16.8733 9.52582 17.0203C9.38409 17.1674 9.19185 17.25 8.99141 17.25C8.79097 17.25 8.59874 17.1674 8.457 17.0203C8.31527 16.8733 8.23564 16.6739 8.23564 16.4659V14.375C8.23564 14.167 8.31527 13.9676 8.457 13.8206C8.59874 13.6735 8.79097 13.5909 8.99141 13.5909ZM13.7779 14.375C13.7779 14.167 13.6983 13.9676 13.5566 13.8206C13.4149 13.6735 13.2226 13.5909 13.0222 13.5909C12.8217 13.5909 12.6295 13.6735 12.4878 13.8206C12.346 13.9676 12.2664 14.167 12.2664 14.375V16.4659C12.2664 16.6739 12.346 16.8733 12.4878 17.0203C12.6295 17.1674 12.8217 17.25 13.0222 17.25C13.2226 17.25 13.4149 17.1674 13.5566 17.0203C13.6983 16.8733 13.7779 16.6739 13.7779 16.4659V14.375Z" fill="white"/>
</svg>