<svg width="13" height="13" viewBox="0 0 13 13" fill="none" xmlns="http://www.w3.org/2000/svg">
<path d="M8.37778 4.44784L8.37844 4.44717C8.60801 4.21789 8.97976 4.21789 9.20933 4.44717L9.20967 4.4475C9.43843 4.67683 9.43872 5.04818 9.20999 5.27767L8.37778 4.44784ZM8.37778 4.44784L5.38626 7.45814L4.13681 6.20869C3.90732 5.97921 3.53548 5.97937 3.30598 6.20858L3.30586 6.20869C3.07644 6.43812 3.07644 6.81004 3.30585 7.03946C3.30586 7.03947 3.30586 7.03947 3.30586 7.03947L4.97631 8.71009L4.97643 8.71021C5.20589 8.93938 5.57756 8.93922 5.80704 8.71032L5.80726 8.7101C5.8288 8.68856 5.84684 8.66678 5.86201 8.64633L9.20956 5.2781L8.37778 4.44784ZM3.48264 6.38547C3.35085 6.51726 3.35085 6.7309 3.48264 6.86269L5.1531 8.53332L3.48264 6.38547ZM6.4 0.949951C3.27961 0.949951 0.75 3.47956 0.75 6.59995C0.75 9.72051 3.27962 12.25 6.4 12.25C9.52056 12.25 12.05 9.72051 12.05 6.59995C12.05 3.47957 9.52056 0.949951 6.4 0.949951ZM6.4 11.0856C3.93347 11.0856 1.925 9.06794 1.925 6.59993C1.925 4.13267 3.93274 2.12493 6.4 2.12493C8.86726 2.12493 10.875 4.13268 10.875 6.59993C10.875 9.06791 8.86653 11.0856 6.4 11.0856Z" fill="#555555" stroke="black" stroke-width="0.5"/>
</svg>
