<svg xmlns="http://www.w3.org/2000/svg" width="12" height="16" viewBox="0 0 12 16" fill="none">
  <path d="M6.5 4.5C6.5 4.36739 6.44732 4.24021 6.35355 4.14645C6.25979 4.05268 6.13261 4 6 4C5.86739 4 5.74021 4.05268 5.64645 4.14645C5.55268 4.24021 5.5 4.36739 5.5 4.5V5.134L4.951 4.817C4.89411 4.78365 4.83119 4.76188 4.76586 4.75295C4.70053 4.74402 4.63408 4.7481 4.57033 4.76495C4.50658 4.78181 4.44679 4.8111 4.39441 4.85116C4.34203 4.89121 4.29809 4.94123 4.26512 4.99834C4.23215 5.05544 4.2108 5.1185 4.2023 5.18389C4.1938 5.24928 4.19832 5.31571 4.2156 5.37935C4.23287 5.44298 4.26257 5.50257 4.30297 5.55469C4.34337 5.6068 4.39368 5.65041 4.451 5.683L5 6L4.451 6.317C4.39368 6.34959 4.34337 6.3932 4.30297 6.44531C4.26257 6.49743 4.23287 6.55702 4.2156 6.62065C4.19832 6.68429 4.1938 6.75072 4.2023 6.81611C4.2108 6.8815 4.23215 6.94456 4.26512 7.00166C4.29809 7.05877 4.34203 7.10879 4.39441 7.14884C4.44679 7.1889 4.50658 7.21819 4.57033 7.23505C4.63408 7.2519 4.70053 7.25598 4.76586 7.24705C4.83119 7.23812 4.89411 7.21635 4.951 7.183L5.5 6.866V7.5C5.5 7.63261 5.55268 7.75979 5.64645 7.85355C5.74021 7.94732 5.86739 8 6 8C6.13261 8 6.25979 7.94732 6.35355 7.85355C6.44732 7.75979 6.5 7.63261 6.5 7.5V6.866L7.049 7.183C7.10589 7.21635 7.16881 7.23812 7.23414 7.24705C7.29947 7.25598 7.36592 7.2519 7.42967 7.23505C7.49342 7.21819 7.55321 7.1889 7.60559 7.14884C7.65797 7.10879 7.70191 7.05877 7.73488 7.00166C7.76785 6.94456 7.7892 6.8815 7.7977 6.81611C7.8062 6.75072 7.80168 6.68429 7.7844 6.62065C7.76713 6.55702 7.73743 6.49743 7.69703 6.44531C7.65663 6.3932 7.60632 6.34959 7.549 6.317L7 6L7.549 5.683C7.60632 5.65041 7.65663 5.6068 7.69703 5.55469C7.73743 5.50257 7.76713 5.44298 7.7844 5.37935C7.80168 5.31571 7.8062 5.24928 7.7977 5.18389C7.7892 5.1185 7.76785 5.05544 7.73488 4.99834C7.70191 4.94123 7.65797 4.89121 7.60559 4.85116C7.55321 4.8111 7.49342 4.78181 7.42967 4.76495C7.36592 4.7481 7.29947 4.74402 7.23414 4.75295C7.16881 4.76188 7.10589 4.78365 7.049 4.817L6.5 5.134V4.5ZM3.5 9C3.36739 9 3.24021 9.05268 3.14645 9.14645C3.05268 9.24021 3 9.36739 3 9.5C3 9.63261 3.05268 9.75979 3.14645 9.85355C3.24021 9.94732 3.36739 10 3.5 10H8.5C8.63261 10 8.75979 9.94732 8.85355 9.85355C8.94732 9.75979 9 9.63261 9 9.5C9 9.36739 8.94732 9.24021 8.85355 9.14645C8.75979 9.05268 8.63261 9 8.5 9H3.5ZM3.5 11C3.36739 11 3.24021 11.0527 3.14645 11.1464C3.05268 11.2402 3 11.3674 3 11.5C3 11.6326 3.05268 11.7598 3.14645 11.8536C3.24021 11.9473 3.36739 12 3.5 12H8.5C8.63261 12 8.75979 11.9473 8.85355 11.8536C8.94732 11.7598 9 11.6326 9 11.5C9 11.3674 8.94732 11.2402 8.85355 11.1464C8.75979 11.0527 8.63261 11 8.5 11H3.5Z" fill="black"/>
  <path d="M0 2C0 1.46957 0.210714 0.960859 0.585786 0.585786C0.960859 0.210714 1.46957 0 2 0L10 0C10.5304 0 11.0391 0.210714 11.4142 0.585786C11.7893 0.960859 12 1.46957 12 2V14C12 14.5304 11.7893 15.0391 11.4142 15.4142C11.0391 15.7893 10.5304 16 10 16H2C1.46957 16 0.960859 15.7893 0.585786 15.4142C0.210714 15.0391 0 14.5304 0 14V2ZM10 1H2C1.73478 1 1.48043 1.10536 1.29289 1.29289C1.10536 1.48043 1 1.73478 1 2V14C1 14.2652 1.10536 14.5196 1.29289 14.7071C1.48043 14.8946 1.73478 15 2 15H10C10.2652 15 10.5196 14.8946 10.7071 14.7071C10.8946 14.5196 11 14.2652 11 14V2C11 1.73478 10.8946 1.48043 10.7071 1.29289C10.5196 1.10536 10.2652 1 10 1Z" fill="black"/>
</svg>