<svg width="176" height="56" viewBox="0 0 176 56" fill="none" xmlns="http://www.w3.org/2000/svg">
<g clip-path="url(#clip0_50_4588)">
<path d="M175.96 50.2101L175.46 45.6157C174.859 40.2009 171.176 35.9581 166.531 35.3955L118.248 29.4416C114.824 29.0196 112.062 25.9958 111.461 22.0343L109.6 9.51689C109.119 6.28207 106.717 3.91455 103.894 3.91455H72.1056C69.283 3.91455 66.8808 6.28207 66.4004 9.51689L64.5387 22.0343C63.9382 25.9958 61.1756 29.0196 57.7525 29.4416L9.46864 35.3955C4.82442 35.9581 1.12105 40.2009 0.540523 45.6157L0.0400682 50.2101C-0.300241 53.2808 1.74161 55.9999 4.38402 55.9999H171.616C174.258 55.9999 176.3 53.2808 175.96 50.2101ZM88 31.3403C84.2366 31.2934 81.1738 27.7069 81.1738 23.2766C81.1738 18.8463 84.2166 15.2599 88 15.213C91.7635 15.2599 94.8262 18.8463 94.8262 23.2766C94.8262 27.7069 91.7835 31.2934 88 31.3403Z" fill="#898989"/>
<path d="M175.96 46.2955L175.46 41.7011C174.859 36.2863 171.176 32.0435 166.531 31.481L118.248 25.527C114.824 25.1051 112.062 22.0812 111.461 18.1197L109.6 5.60234C109.119 2.36752 106.717 0 103.894 0H72.1056C69.283 0 66.8808 2.36752 66.4004 5.60234L64.5387 18.1197C63.9382 22.0812 61.1756 25.1051 57.7525 25.527L9.46864 31.5044C4.82442 32.067 1.12105 36.3098 0.540523 41.7246L0.0400682 46.2955C-0.300241 49.3663 1.74161 52.0854 4.38402 52.0854H171.616C174.258 52.0854 176.3 49.3663 175.96 46.2955ZM88 27.4257C84.2366 27.3788 81.1738 23.7924 81.1738 19.3621C81.1738 14.9318 84.2166 11.3453 88 11.2985C91.7635 11.3453 94.8262 14.9318 94.8262 19.3621C94.8262 23.7924 91.7835 27.3788 88 27.4257Z" fill="#B7B7B7"/>
</g>
<defs>
<clipPath id="clip0_50_4588">
<rect width="176" height="56" fill="white"/>
</clipPath>
</defs>
</svg>
