<svg xmlns="http://www.w3.org/2000/svg" width="21" height="21" viewBox="0 0 21 21" fill="none">
  <path fill-rule="evenodd" clip-rule="evenodd" d="M0 7.35C0 6.79305 0.221249 6.2589 0.615076 5.86508C1.0089 5.47125 1.54305 5.25 2.1 5.25H18.9C19.457 5.25 19.9911 5.47125 20.3849 5.86508C20.7787 6.2589 21 6.79305 21 7.35V18.9C21 19.457 20.7787 19.9911 20.3849 20.3849C19.9911 20.7787 19.457 21 18.9 21H2.1C1.54305 21 1.0089 20.7787 0.615076 20.3849C0.221249 19.9911 0 19.457 0 18.9V7.35ZM18.9 7.35H2.1V18.9H18.9V7.35Z" fill="#AEAEAE"/>
  <path fill-rule="evenodd" clip-rule="evenodd" d="M6.03749 9.97501C6.03749 9.76615 6.12046 9.56585 6.26815 9.41816C6.41583 9.27048 6.61613 9.18751 6.82499 9.18751H14.175C14.3839 9.18751 14.5842 9.27048 14.7318 9.41816C14.8795 9.56585 14.9625 9.76615 14.9625 9.97501C14.9625 10.1839 14.8795 10.3842 14.7318 10.5319C14.5842 10.6795 14.3839 10.7625 14.175 10.7625H6.82499C6.61613 10.7625 6.41583 10.6795 6.26815 10.5319C6.12046 10.3842 6.03749 10.1839 6.03749 9.97501ZM4.98749 13.125C4.98749 12.9162 5.07046 12.7158 5.21815 12.5682C5.36583 12.4205 5.56613 12.3375 5.77499 12.3375H15.225C15.4339 12.3375 15.6342 12.4205 15.7818 12.5682C15.9295 12.7158 16.0125 12.9162 16.0125 13.125C16.0125 13.3339 15.9295 13.5342 15.7818 13.6819C15.6342 13.8295 15.4339 13.9125 15.225 13.9125H5.77499C5.56613 13.9125 5.36583 13.8295 5.21815 13.6819C5.07046 13.5342 4.98749 13.3339 4.98749 13.125ZM6.03749 16.275C6.03749 16.0662 6.12046 15.8658 6.26815 15.7182C6.41583 15.5705 6.61613 15.4875 6.82499 15.4875H14.175C14.3839 15.4875 14.5842 15.5705 14.7318 15.7182C14.8795 15.8658 14.9625 16.0662 14.9625 16.275C14.9625 16.4839 14.8795 16.6842 14.7318 16.8319C14.5842 16.9795 14.3839 17.0625 14.175 17.0625H6.82499C6.61613 17.0625 6.41583 16.9795 6.26815 16.8319C6.12046 16.6842 6.03749 16.4839 6.03749 16.275ZM11.9847 2.96941C11.5909 2.57572 11.0568 2.35456 10.5 2.35456C9.94315 2.35456 9.4091 2.57572 9.01529 2.96941L4.94234 7.04341C4.84479 7.1409 4.72899 7.21821 4.60155 7.27095C4.47411 7.32368 4.33754 7.35079 4.19962 7.35075C4.06171 7.3507 3.92515 7.32348 3.79775 7.27066C3.67035 7.21784 3.5546 7.14044 3.45712 7.04288C3.35963 6.94533 3.28231 6.82953 3.22958 6.70209C3.17685 6.57465 3.14973 6.43808 3.14978 6.30016C3.14983 6.16225 3.17704 6.02569 3.22987 5.89829C3.28269 5.77089 3.36009 5.65515 3.45764 5.55766L7.53059 1.48471C8.31821 0.69733 9.3863 0.255005 10.5 0.255005C11.6137 0.255005 12.6818 0.69733 13.4694 1.48471L17.5434 5.55766C17.7403 5.75468 17.8508 6.02185 17.8507 6.30038C17.8506 6.57891 17.7399 6.846 17.5429 7.04288C17.3458 7.23977 17.0787 7.35032 16.8001 7.35022C16.5216 7.35012 16.2545 7.23938 16.0576 7.04236L11.9847 2.96941Z" fill="#AEAEAE"/>
</svg>