<svg xmlns="http://www.w3.org/2000/svg" width="24" height="22" viewBox="0 0 24 22" fill="none">
  <mask id="path-1-inside-1_34_948" fill="white">
    <path fill-rule="evenodd" clip-rule="evenodd" d="M16.4569 2C16.4569 0.895431 15.5615 0 14.4569 0H9.58924C8.48468 0 7.58924 0.89543 7.58924 2L7.58924 6.6H2.93848C1.83391 6.6 0.938477 7.49543 0.938477 8.6V13.4C0.938477 14.5046 1.8339 15.4 2.93847 15.4H7.58924L7.58924 20C7.58924 21.1046 8.48467 22 9.58924 22H14.4569C15.5615 22 16.4569 21.1046 16.4569 20V15.4H21.1077C22.2123 15.4 23.1077 14.5046 23.1077 13.4V8.6C23.1077 7.49543 22.2123 6.6 21.1077 6.6H16.4569V2Z"/>
  </mask>
  <path d="M7.58924 2L9.58924 2V2H7.58924ZM7.58924 6.6V8.6C8.69381 8.6 9.58924 7.70457 9.58924 6.6H7.58924ZM7.58924 15.4H9.58924C9.58924 14.8696 9.37853 14.3609 9.00346 13.9858C8.62839 13.6107 8.11968 13.4 7.58924 13.4V15.4ZM7.58924 20H5.58924H7.58924ZM16.4569 15.4V13.4C15.3524 13.4 14.4569 14.2954 14.4569 15.4H16.4569ZM16.4569 6.6H14.4569C14.4569 7.70457 15.3524 8.6 16.4569 8.6V6.6ZM14.4569 2H14.4569H18.4569C18.4569 -0.209138 16.6661 -2 14.4569 -2V2ZM9.58924 2H14.4569V-2H9.58924V2ZM9.58924 2V2V-2C7.38011 -2 5.58924 -0.209141 5.58924 2H9.58924ZM9.58924 6.6L9.58924 2L5.58924 2L5.58924 6.6H9.58924ZM2.93848 8.6H7.58924V4.6H2.93848V8.6ZM2.93848 8.6H2.93848V4.6C0.729338 4.6 -1.06152 6.39086 -1.06152 8.6H2.93848ZM2.93848 13.4V8.6H-1.06152V13.4H2.93848ZM2.93847 13.4H2.93848H-1.06152C-1.06152 15.6091 0.729333 17.4 2.93847 17.4V13.4ZM7.58924 13.4H2.93847V17.4H7.58924V13.4ZM9.58924 20V15.4H5.58924L5.58924 20H9.58924ZM9.58924 20H9.58924H5.58924C5.58924 22.2091 7.3801 24 9.58924 24V20ZM14.4569 20H9.58924V24H14.4569V20ZM14.4569 20V24C16.6661 24 18.4569 22.2091 18.4569 20H14.4569ZM14.4569 15.4V20H18.4569V15.4H14.4569ZM21.1077 13.4H16.4569V17.4H21.1077V13.4ZM21.1077 13.4V17.4C23.3168 17.4 25.1077 15.6091 25.1077 13.4H21.1077ZM21.1077 8.6V13.4H25.1077V8.6H21.1077ZM21.1077 8.6H21.1077H25.1077C25.1077 6.39086 23.3169 4.6 21.1077 4.6V8.6ZM16.4569 8.6H21.1077V4.6H16.4569V8.6ZM14.4569 2V6.6H18.4569V2H14.4569Z" fill="#AEAEAE" mask="url(#path-1-inside-1_34_948)"/>
</svg>