<svg xmlns="http://www.w3.org/2000/svg" width="87" height="87" viewBox="0 0 87 87" fill="none">
  <g clip-path="url(#clip0_192_4614)">
    <path d="M43.5 86.6229C67.3161 86.6229 86.6228 67.3161 86.6228 43.5C86.6228 19.684 67.3161 0.377197 43.5 0.377197C19.6839 0.377197 0.377136 19.684 0.377136 43.5C0.377136 67.3161 19.6839 86.6229 43.5 86.6229Z" fill="white" stroke="#231815" stroke-miterlimit="10"/>
    <path d="M43.417 24.605C33.0455 24.605 24.605 33.0455 24.605 43.417C24.605 53.7885 33.0455 62.229 43.417 62.229C53.7885 62.229 62.229 53.7885 62.229 43.417C62.229 33.0455 53.7885 24.605 43.417 24.605ZM41.2899 42.2403C37.0961 45.2047 32.0423 45.2801 30.0133 42.4063C27.9842 39.5324 29.7417 34.803 33.9356 31.8386C38.1294 28.8743 43.1832 28.7988 45.2122 31.6727C47.2413 34.5465 45.4838 39.276 41.2899 42.2403ZM48.7121 58.1182C47.8523 58.1182 47.1508 57.4167 47.1508 56.5568C47.1508 55.6969 47.8523 54.9954 48.7121 54.9954C49.572 54.9954 50.2735 55.6969 50.2735 56.5568C50.2735 57.4167 49.572 58.1182 48.7121 58.1182ZM53.9771 54.5202C52.8079 54.5202 51.8575 53.5698 51.8575 52.4006C51.8575 51.2315 52.8079 50.2811 53.9771 50.2811C55.1462 50.2811 56.0967 51.2315 56.0967 52.4006C56.0967 53.5698 55.1462 54.5202 53.9771 54.5202Z" fill="#3E3A39" stroke="#231815" stroke-miterlimit="10"/>
  </g>
  <defs>
    <clipPath id="clip0_192_4614">
      <rect width="87" height="87" fill="white"/>
    </clipPath>
  </defs>
</svg>