<svg xmlns="http://www.w3.org/2000/svg" width="340" height="85" viewBox="0 0 340 85" fill="none">
  <mask id="path-1-inside-1_199_3936" fill="white">
    <path fill-rule="evenodd" clip-rule="evenodd" d="M173.177 16.9643C171.233 18.1775 168.767 18.1775 166.823 16.9643L140.046 0.25293H10C4.47715 0.25293 0 4.73009 0 10.2529V57.0173C0 62.5401 4.47716 67.0173 10 67.0173H140.046L166.823 83.7287C168.767 84.942 171.233 84.942 173.177 83.7287L199.954 67.0173H330C335.523 67.0173 340 62.5401 340 57.0173V10.2529C340 4.73008 335.523 0.25293 330 0.25293H199.954L173.177 16.9643Z"/>
  </mask>
  <path fill-rule="evenodd" clip-rule="evenodd" d="M173.177 16.9643C171.233 18.1775 168.767 18.1775 166.823 16.9643L140.046 0.25293H10C4.47715 0.25293 0 4.73009 0 10.2529V57.0173C0 62.5401 4.47716 67.0173 10 67.0173H140.046L166.823 83.7287C168.767 84.942 171.233 84.942 173.177 83.7287L199.954 67.0173H330C335.523 67.0173 340 62.5401 340 57.0173V10.2529C340 4.73008 335.523 0.25293 330 0.25293H199.954L173.177 16.9643Z" fill="#CFEEFF"/>
  <path d="M166.823 16.9643L167.353 16.1159V16.1159L166.823 16.9643ZM173.177 16.9643L172.647 16.1159V16.1159L173.177 16.9643ZM140.046 0.25293L140.575 -0.595418L140.332 -0.74707H140.046V0.25293ZM140.046 67.0173L140.575 66.1689L140.332 66.0173H140.046V67.0173ZM166.823 83.7287L166.294 84.5771L166.823 83.7287ZM173.177 83.7287L173.706 84.5771L173.177 83.7287ZM199.954 67.0173V66.0173H199.668L199.425 66.1689L199.954 67.0173ZM199.954 0.25293V-0.74707H199.668L199.425 -0.595418L199.954 0.25293ZM166.294 17.8126C168.562 19.2281 171.438 19.2281 173.706 17.8126L172.647 16.1159C171.027 17.127 168.973 17.127 167.353 16.1159L166.294 17.8126ZM139.517 1.10128L166.294 17.8126L167.353 16.1159L140.575 -0.595418L139.517 1.10128ZM140.046 -0.74707H10V1.25293H140.046V-0.74707ZM10 -0.74707C3.92487 -0.74707 -1 4.1778 -1 10.2529H1C1 5.28237 5.02944 1.25293 10 1.25293V-0.74707ZM-1 10.2529V57.0173H1V10.2529H-1ZM-1 57.0173C-1 63.0924 3.92488 68.0173 10 68.0173V66.0173C5.02945 66.0173 1 61.9878 1 57.0173H-1ZM10 68.0173H140.046V66.0173H10V68.0173ZM139.516 67.8656L166.294 84.5771L167.353 82.8804L140.575 66.1689L139.516 67.8656ZM166.294 84.5771C168.562 85.9925 171.438 85.9925 173.706 84.5771L172.647 82.8804C171.027 83.8914 168.973 83.8914 167.353 82.8804L166.294 84.5771ZM173.706 84.5771L200.484 67.8656L199.425 66.1689L172.647 82.8804L173.706 84.5771ZM199.954 68.0173H330V66.0173H199.954V68.0173ZM330 68.0173C336.075 68.0173 341 63.0924 341 57.0173H339C339 61.9878 334.971 66.0173 330 66.0173V68.0173ZM341 57.0173V10.2529H339V57.0173H341ZM341 10.2529C341 4.1778 336.075 -0.74707 330 -0.74707V1.25293C334.971 1.25293 339 5.28237 339 10.2529H341ZM330 -0.74707H199.954V1.25293H330V-0.74707ZM173.706 17.8126L200.483 1.10128L199.425 -0.595418L172.647 16.1159L173.706 17.8126Z" fill="#D9D9D9" mask="url(#path-1-inside-1_199_3936)"/>
</svg>