<svg xmlns="http://www.w3.org/2000/svg" width="24" height="24" viewBox="0 0 24 24" fill="none">
  <path d="M15.1495 8.88291L15.1501 8.88238C15.4603 8.57254 15.9626 8.57254 16.2729 8.88238L16.2731 8.88264C16.5824 9.19271 16.5827 9.69479 16.2733 10.0048L16.2734 10.0047L16.1315 9.86373L16.2731 10.0051L15.1495 8.88291ZM15.1495 8.88291L9.7171 14.3495M15.1495 8.88291L9.7171 14.3495M9.7171 14.3495L7.34889 11.9813C7.03887 11.6712 6.53647 11.6714 6.22628 11.9812L6.22619 11.9813C5.91622 12.2912 5.91622 12.7937 6.22618 13.1036C6.22618 13.1037 6.22618 13.1037 6.22619 13.1037L9.7171 14.3495ZM10.3705 15.9441C10.3743 15.9388 10.3779 15.9336 10.3815 15.9284L10.2166 15.8152L10.3585 15.9562L10.3705 15.9441ZM11.5 2.8C6.14287 2.8 1.8 7.14287 1.8 12.5C1.8 17.8574 6.14287 22.2 11.5 22.2C16.8574 22.2 21.2 17.8574 21.2 12.5C21.2 7.14287 16.8574 2.8 11.5 2.8ZM11.5 20.6312C7.02759 20.6312 3.3875 16.9736 3.3875 12.5C3.3875 8.02697 7.027 4.38746 11.5 4.38746C15.973 4.38746 19.6125 8.02698 19.6125 12.5C19.6125 16.9735 15.9724 20.6312 11.5 20.6312Z" fill="#0091E2" stroke="#0091E2" stroke-width="0.4"/>
</svg>