<svg xmlns="http://www.w3.org/2000/svg" width="340" height="67" viewBox="0 0 340 67" fill="none">
  <mask id="path-1-inside-1_199_3947" fill="white">
    <path fill-rule="evenodd" clip-rule="evenodd" d="M173.177 18.2821C171.233 19.4953 168.767 19.4953 166.823 18.2821L137.906 0.235352H10C4.47715 0.235352 0 4.71251 0 10.2354V56.9997C0 62.5225 4.47716 66.9997 10 66.9997H330C335.523 66.9997 340 62.5225 340 56.9997V10.2354C340 4.7125 335.523 0.235352 330 0.235352H202.094L173.177 18.2821Z"/>
  </mask>
  <path fill-rule="evenodd" clip-rule="evenodd" d="M173.177 18.2821C171.233 19.4953 168.767 19.4953 166.823 18.2821L137.906 0.235352H10C4.47715 0.235352 0 4.71251 0 10.2354V56.9997C0 62.5225 4.47716 66.9997 10 66.9997H330C335.523 66.9997 340 62.5225 340 56.9997V10.2354C340 4.7125 335.523 0.235352 330 0.235352H202.094L173.177 18.2821Z" fill="#BAE6FF"/>
  <path d="M166.823 18.2821L167.353 17.4337L166.823 18.2821ZM173.177 18.2821L172.647 17.4337L173.177 18.2821ZM137.906 0.235352L138.436 -0.612996L138.193 -0.764648H137.906V0.235352ZM202.094 0.235352V-0.764648H201.807L201.564 -0.612996L202.094 0.235352ZM166.294 19.1304C168.562 20.5458 171.438 20.5458 173.706 19.1304L172.647 17.4337C171.027 18.4447 168.973 18.4447 167.353 17.4337L166.294 19.1304ZM137.377 1.0837L166.294 19.1304L167.353 17.4337L138.436 -0.612996L137.377 1.0837ZM10 1.23535H137.906V-0.764648H10V1.23535ZM1 10.2354C1 5.26479 5.02944 1.23535 10 1.23535V-0.764648C3.92487 -0.764648 -1 4.16022 -1 10.2354H1ZM1 56.9997V10.2354H-1V56.9997H1ZM10 65.9997C5.02945 65.9997 1 61.9702 1 56.9997H-1C-1 63.0748 3.92488 67.9997 10 67.9997V65.9997ZM330 65.9997H10V67.9997H330V65.9997ZM339 56.9997C339 61.9702 334.971 65.9997 330 65.9997V67.9997C336.075 67.9997 341 63.0748 341 56.9997H339ZM339 10.2354V56.9997H341V10.2354H339ZM330 1.23535C334.971 1.23535 339 5.26479 339 10.2354H341C341 4.16022 336.075 -0.764648 330 -0.764648V1.23535ZM202.094 1.23535H330V-0.764648H202.094V1.23535ZM173.706 19.1304L202.623 1.0837L201.564 -0.612996L172.647 17.4337L173.706 19.1304Z" fill="#D9D9D9" mask="url(#path-1-inside-1_199_3947)"/>
</svg>