<svg xmlns="http://www.w3.org/2000/svg" width="24" height="24" viewBox="0 0 24 24" fill="none">
  <path d="M7.23961 14.4128L3.44657 10.6224C3.26809 10.4443 3.13671 10.2246 3.06422 9.98312C2.99173 9.74167 2.98041 9.48599 3.03127 9.23908C3.08055 8.96759 3.20148 8.71418 3.38157 8.50503C3.56166 8.29589 3.79438 8.13859 4.05567 8.04941L18.9095 3.09704C19.1878 2.99369 19.4899 2.97236 19.78 3.0356C20.0701 3.09884 20.3359 3.24399 20.5459 3.45379C20.7558 3.66359 20.9011 3.92922 20.9644 4.21911C21.0277 4.50899 21.0063 4.81094 20.9029 5.08906L15.947 19.9323C15.8637 20.1847 15.7168 20.4115 15.5204 20.5907C15.324 20.77 15.0848 20.8958 14.8257 20.956C14.5682 21.0192 14.2987 21.0142 14.0438 20.9415C13.7888 20.8687 13.5573 20.7306 13.3722 20.541L10.3543 17.5391L7.11502 19.213L7.23961 14.4128ZM7.23961 14.4128L20.4599 3.40138" stroke="#0091E2" stroke-width="2" stroke-linecap="round" stroke-linejoin="round"/>
</svg>