<svg xmlns="http://www.w3.org/2000/svg" width="340" height="86" viewBox="0 0 340 86" fill="none">
  <mask id="path-1-inside-1_199_3935" fill="white">
    <path fill-rule="evenodd" clip-rule="evenodd" d="M173.177 17.3378C171.233 18.5511 168.767 18.5511 166.823 17.3378L140.046 0.626465H10C4.47715 0.626465 0 5.10362 0 10.6265V57.3908C0 62.9136 4.47716 67.3908 10 67.3908H140.046L166.823 84.1023C168.767 85.3155 171.233 85.3155 173.177 84.1023L199.954 67.3908H330C335.523 67.3908 340 62.9136 340 57.3908V10.6265C340 5.10362 335.523 0.626465 330 0.626465H199.954L173.177 17.3378Z"/>
  </mask>
  <path fill-rule="evenodd" clip-rule="evenodd" d="M173.177 17.3378C171.233 18.5511 168.767 18.5511 166.823 17.3378L140.046 0.626465H10C4.47715 0.626465 0 5.10362 0 10.6265V57.3908C0 62.9136 4.47716 67.3908 10 67.3908H140.046L166.823 84.1023C168.767 85.3155 171.233 85.3155 173.177 84.1023L199.954 67.3908H330C335.523 67.3908 340 62.9136 340 57.3908V10.6265C340 5.10362 335.523 0.626465 330 0.626465H199.954L173.177 17.3378Z" fill="#EFF9FF"/>
  <path d="M166.823 17.3378L167.353 16.4895V16.4895L166.823 17.3378ZM173.177 17.3378L172.647 16.4895V16.4895L173.177 17.3378ZM140.046 0.626465L140.575 -0.221882L140.332 -0.373535H140.046V0.626465ZM140.046 67.3908L140.575 66.5424L140.332 66.3908H140.046V67.3908ZM166.823 84.1023L166.294 84.9506L166.823 84.1023ZM173.177 84.1023L173.706 84.9506L173.177 84.1023ZM199.954 67.3908V66.3908H199.668L199.425 66.5424L199.954 67.3908ZM199.954 0.626465V-0.373535H199.668L199.425 -0.221882L199.954 0.626465ZM166.294 18.1862C168.562 19.6016 171.438 19.6016 173.706 18.1862L172.647 16.4895C171.027 17.5005 168.973 17.5005 167.353 16.4895L166.294 18.1862ZM139.517 1.47481L166.294 18.1862L167.353 16.4895L140.575 -0.221882L139.517 1.47481ZM140.046 -0.373535H10V1.62646H140.046V-0.373535ZM10 -0.373535C3.92487 -0.373535 -1 4.55134 -1 10.6265H1C1 5.65591 5.02944 1.62646 10 1.62646V-0.373535ZM-1 10.6265V57.3908H1V10.6265H-1ZM-1 57.3908C-1 63.4659 3.92488 68.3908 10 68.3908V66.3908C5.02945 66.3908 1 62.3614 1 57.3908H-1ZM10 68.3908H140.046V66.3908H10V68.3908ZM139.516 68.2392L166.294 84.9506L167.353 83.2539L140.575 66.5424L139.516 68.2392ZM166.294 84.9506C168.562 86.366 171.438 86.366 173.706 84.9506L172.647 83.2539C171.027 84.2649 168.973 84.2649 167.353 83.2539L166.294 84.9506ZM173.706 84.9506L200.484 68.2392L199.425 66.5424L172.647 83.2539L173.706 84.9506ZM199.954 68.3908H330V66.3908H199.954V68.3908ZM330 68.3908C336.075 68.3908 341 63.4659 341 57.3908H339C339 62.3614 334.971 66.3908 330 66.3908V68.3908ZM341 57.3908V10.6265H339V57.3908H341ZM341 10.6265C341 4.55133 336.075 -0.373535 330 -0.373535V1.62646C334.971 1.62646 339 5.6559 339 10.6265H341ZM330 -0.373535H199.954V1.62646H330V-0.373535ZM173.706 18.1862L200.483 1.47481L199.425 -0.221882L172.647 16.4895L173.706 18.1862Z" fill="#D9D9D9" mask="url(#path-1-inside-1_199_3935)"/>
</svg>