<svg xmlns="http://www.w3.org/2000/svg" width="340" height="85" viewBox="0 0 340 85" fill="none">
  <mask id="path-1-inside-1_199_3922" fill="white">
    <path fill-rule="evenodd" clip-rule="evenodd" d="M10 0C4.47715 0 0 4.47716 0 10V56.7643C0 62.2872 4.47716 66.7643 10 66.7643H140.046L166.823 83.4758C168.767 84.689 171.233 84.689 173.177 83.4758L199.954 66.7643H330C335.523 66.7643 340 62.2872 340 56.7643V10C340 4.47715 335.523 0 330 0H10Z"/>
  </mask>
  <path fill-rule="evenodd" clip-rule="evenodd" d="M10 0C4.47715 0 0 4.47716 0 10V56.7643C0 62.2872 4.47716 66.7643 10 66.7643H140.046L166.823 83.4758C168.767 84.689 171.233 84.689 173.177 83.4758L199.954 66.7643H330C335.523 66.7643 340 62.2872 340 56.7643V10C340 4.47715 335.523 0 330 0H10Z" fill="white"/>
  <path d="M140.046 66.7643L140.575 65.916L140.332 65.7643H140.046V66.7643ZM166.823 83.4758L166.294 84.3242L166.823 83.4758ZM173.177 83.4758L173.706 84.3242L173.177 83.4758ZM199.954 66.7643V65.7643H199.668L199.425 65.916L199.954 66.7643ZM1 10C1 5.02944 5.02944 1 10 1V-1C3.92487 -1 -1 3.92487 -1 10H1ZM1 56.7643V10H-1V56.7643H1ZM10 65.7643C5.02945 65.7643 1 61.7349 1 56.7643H-1C-1 62.8395 3.92488 67.7643 10 67.7643V65.7643ZM140.046 65.7643H10V67.7643H140.046V65.7643ZM139.516 67.6127L166.294 84.3242L167.353 82.6275L140.575 65.916L139.516 67.6127ZM166.294 84.3242C168.562 85.7396 171.438 85.7396 173.706 84.3242L172.647 82.6275C171.027 83.6385 168.973 83.6385 167.353 82.6275L166.294 84.3242ZM173.706 84.3242L200.484 67.6127L199.425 65.916L172.647 82.6275L173.706 84.3242ZM330 65.7643H199.954V67.7643H330V65.7643ZM339 56.7643C339 61.7349 334.971 65.7643 330 65.7643V67.7643C336.075 67.7643 341 62.8395 341 56.7643H339ZM339 10V56.7643H341V10H339ZM330 1C334.971 1 339 5.02944 339 10H341C341 3.92487 336.075 -1 330 -1V1ZM10 1H330V-1H10V1Z" fill="#D9D9D9" mask="url(#path-1-inside-1_199_3922)"/>
</svg>