<svg xmlns="http://www.w3.org/2000/svg" width="42" height="30" viewBox="0 0 42 30" fill="none">
  <path d="M20.8142 13.4325C17.1914 13.4325 13.7766 15.6324 11.7833 18.5538C9.79096 21.4737 9.40338 24.7924 11.2152 27.1598C12.2737 28.2426 13.221 28.6972 14.0331 28.8436C14.8615 28.993 15.6606 28.8416 16.4432 28.5289C17.2048 28.2245 17.8955 27.7919 18.5604 27.3754C18.5915 27.356 18.6225 27.3365 18.6535 27.3172C18.9845 27.11 19.3316 26.895 19.6547 26.7339C19.9575 26.5829 20.3701 26.4096 20.8142 26.4096C21.2566 26.4096 21.6582 26.5772 21.9577 26.7303C22.2717 26.891 22.5994 27.1041 22.908 27.3094C22.9757 27.3544 23.0434 27.3997 23.1112 27.4451C23.6938 27.8347 24.2868 28.2313 24.952 28.5357C25.6785 28.8682 26.433 29.0605 27.2389 28.9828C28.0217 28.9074 28.9469 28.5682 30.0186 27.688C32.0689 25.224 31.8262 21.7743 29.9337 18.7639C28.0295 15.7348 24.6011 13.4325 20.8142 13.4325Z" stroke="#3E3A39" stroke-width="2"/>
  <path d="M18.8463 5.47485C18.8463 7.94624 16.8428 9.9497 14.3715 9.9497C11.9001 9.9497 9.89661 7.94624 9.89661 5.47485C9.89661 3.00346 11.9001 1 14.3715 1C16.8428 1 18.8463 3.00346 18.8463 5.47485Z" stroke="#3E3A39" stroke-width="2"/>
  <path d="M9.9497 14.1434C9.9497 16.6148 7.94624 18.6182 5.47485 18.6182C3.00346 18.6182 1 16.6148 1 14.1434C1 11.672 3.00346 9.66852 5.47485 9.66852C7.94624 9.66852 9.9497 11.672 9.9497 14.1434Z" stroke="#3E3A39" stroke-width="2"/>
  <path d="M40.2895 14.1434C40.2895 16.6148 38.286 18.6182 35.8146 18.6182C33.3432 18.6182 31.3398 16.6148 31.3398 14.1434C31.3398 11.672 33.3432 9.66852 35.8146 9.66852C38.286 9.66852 40.2895 11.672 40.2895 14.1434Z" stroke="#3E3A39" stroke-width="2"/>
  <path d="M31.1647 5.47485C31.1647 7.94624 29.1613 9.9497 26.6899 9.9497C24.2185 9.9497 22.215 7.94624 22.215 5.47485C22.215 3.00346 24.2185 1 26.6899 1C29.1613 1 31.1647 3.00346 31.1647 5.47485Z" stroke="#3E3A39" stroke-width="2"/>
</svg>