<svg width="53" height="53" viewBox="0 0 53 53" fill="none" xmlns="http://www.w3.org/2000/svg">
<g filter="url(#filter0_di_118_2035)">
<path d="M46.3681 43.2063L38.0256 34.925C41.2639 30.8842 42.8321 25.7554 42.4078 20.593C41.9835 15.4307 39.5989 10.6272 35.7444 7.17033C31.8898 3.71345 26.8583 1.8659 21.6844 2.00759C16.5105 2.14927 11.5875 4.26942 7.92757 7.93207C4.26769 11.5947 2.14916 16.5215 2.00758 21.6994C1.866 26.8772 3.71215 31.9125 7.1664 35.77C10.6207 39.6275 15.4205 42.0139 20.5789 42.4385C25.7373 42.8632 30.8623 41.2937 34.9 38.053L43.175 46.3343C43.3841 46.5453 43.6328 46.7127 43.9068 46.8269C44.1808 46.9412 44.4747 47 44.7716 47C45.0685 47 45.3624 46.9412 45.6364 46.8269C45.9104 46.7127 46.1591 46.5453 46.3681 46.3343C46.7734 45.9147 47 45.3539 47 44.7703C47 44.1867 46.7734 43.6259 46.3681 43.2063ZM22.285 38.053C19.1718 38.053 16.1285 37.1291 13.5399 35.3982C10.9514 33.6673 8.93388 31.2071 7.74251 28.3286C6.55114 25.4502 6.23942 22.2829 6.84678 19.2272C7.45413 16.1715 8.95328 13.3646 11.1547 11.1616C13.356 8.95857 16.1607 7.45828 19.2141 6.85046C22.2675 6.24264 25.4324 6.55459 28.3087 7.74687C31.1849 8.93915 33.6432 10.9582 35.3728 13.5487C37.1024 16.1392 38.0256 19.1848 38.0256 22.3004C38.0256 26.4782 36.3672 30.485 33.4153 33.4391C30.4633 36.3933 26.4596 38.053 22.285 38.053Z" fill="#3E3A39"/>
<path d="M37.9476 34.8624L37.8913 34.9326L37.9552 34.9959L46.2962 43.2758C46.2965 43.276 46.2967 43.2763 46.2969 43.2765C46.6838 43.6774 46.9 44.213 46.9 44.7703C46.9 45.3278 46.6837 45.8635 46.2966 46.2644C46.097 46.4658 45.8595 46.6256 45.5979 46.7346C45.3361 46.8438 45.0552 46.9 44.7716 46.9C44.488 46.9 44.2071 46.8438 43.9453 46.7346C43.6835 46.6255 43.4458 46.4655 43.2461 46.264L43.2458 46.2637L34.9707 37.9823L34.9073 37.9189L34.8374 37.975C30.8196 41.1997 25.72 42.7614 20.5871 42.3389C15.4542 41.9163 10.6781 39.5417 7.2409 35.7033C3.8037 31.8649 1.96666 26.8544 2.10754 21.7021C2.24842 16.5498 4.35651 11.6473 7.99831 8.00276C11.6401 4.35819 16.5388 2.24853 21.6871 2.10755C26.8355 1.96656 31.8421 3.80497 35.6776 7.24478C39.5131 10.6846 41.886 15.4643 42.3082 20.6012C42.7304 25.7381 41.1699 30.8416 37.9476 34.8624ZM13.4843 35.4813C16.0893 37.2232 19.152 38.153 22.285 38.153C26.4862 38.153 30.5153 36.4828 33.486 33.5098C36.4567 30.5369 38.1256 26.5047 38.1256 22.3004C38.1256 19.165 37.1966 16.1001 35.456 13.4932C33.7154 10.8862 31.2415 8.85435 28.3469 7.65449C25.4524 6.45464 22.2674 6.1407 19.1946 6.75238C16.1218 7.36406 13.2993 8.87389 11.0839 11.0909C8.86857 13.308 7.3599 16.1326 6.74869 19.2077C6.13749 22.2828 6.45118 25.4702 7.65011 28.3669C8.84904 31.2636 10.8794 33.7394 13.4843 35.4813Z" stroke="#3E3A39" stroke-width="0.2"/>
</g>
<defs>
<filter id="filter0_di_118_2035" x="0" y="0" width="53" height="53" filterUnits="userSpaceOnUse" color-interpolation-filters="sRGB">
<feFlood flood-opacity="0" result="BackgroundImageFix"/>
<feColorMatrix in="SourceAlpha" type="matrix" values="0 0 0 0 0 0 0 0 0 0 0 0 0 0 0 0 0 0 127 0" result="hardAlpha"/>
<feOffset dx="2" dy="2"/>
<feGaussianBlur stdDeviation="2"/>
<feComposite in2="hardAlpha" operator="out"/>
<feColorMatrix type="matrix" values="0 0 0 0 0 0 0 0 0 0 0 0 0 0 0 0 0 0 0.25 0"/>
<feBlend mode="normal" in2="BackgroundImageFix" result="effect1_dropShadow_118_2035"/>
<feBlend mode="normal" in="SourceGraphic" in2="effect1_dropShadow_118_2035" result="shape"/>
<feColorMatrix in="SourceAlpha" type="matrix" values="0 0 0 0 0 0 0 0 0 0 0 0 0 0 0 0 0 0 127 0" result="hardAlpha"/>
<feOffset dx="0.5" dy="0.5"/>
<feGaussianBlur stdDeviation="0.5"/>
<feComposite in2="hardAlpha" operator="arithmetic" k2="-1" k3="1"/>
<feColorMatrix type="matrix" values="0 0 0 0 1 0 0 0 0 1 0 0 0 0 1 0 0 0 1 0"/>
<feBlend mode="normal" in2="shape" result="effect2_innerShadow_118_2035"/>
</filter>
</defs>
</svg>
