<svg xmlns="http://www.w3.org/2000/svg" width="24" height="24" viewBox="0 0 24 24" fill="none">
  <path d="M22 19.807V12.4243C22 11.8294 21.8774 11.2408 21.6396 10.6941C21.4017 10.1475 21.0537 9.65426 20.6167 9.24452L13.5311 2.60307C13.1181 2.21589 12.5702 2 12.0006 2C11.4309 2 10.883 2.21589 10.47 2.60307L3.38333 9.24452C2.94628 9.65426 2.59826 10.1475 2.36045 10.6941C2.12264 11.2408 2 11.8294 2 12.4243V19.807C2 20.3886 2.23413 20.9464 2.65087 21.3577C3.06762 21.769 3.63285 22 4.22222 22H19.7778C20.3671 22 20.9324 21.769 21.3491 21.3577C21.7659 20.9464 22 20.3886 22 19.807Z" stroke="#AEAEAE" stroke-width="2.2" stroke-linecap="round" stroke-linejoin="round"/>
</svg>