<svg width="23" height="23" viewBox="0 0 23 23" fill="none" xmlns="http://www.w3.org/2000/svg">
<g clip-path="url(#clip0_309_4102)">
<path d="M22.4237 20.8262L18.25 16.6862C19.8701 14.6662 20.6546 12.1022 20.4424 9.52142C20.2301 6.94067 19.0371 4.53933 17.1087 2.81118C15.1802 1.08302 12.663 0.159402 10.0745 0.230233C7.486 0.301063 5.02302 1.36096 3.19199 3.19199C1.36096 5.02302 0.301063 7.486 0.230233 10.0745C0.159402 12.663 1.08302 15.1802 2.81118 17.1087C4.53933 19.0371 6.94067 20.2301 9.52142 20.4424C12.1022 20.6546 14.6662 19.8701 16.6862 18.25L20.8262 22.39C20.9308 22.4954 21.0552 22.5791 21.1923 22.6362C21.3294 22.6933 21.4764 22.7227 21.625 22.7227C21.7735 22.7227 21.9205 22.6933 22.0576 22.6362C22.1947 22.5791 22.3191 22.4954 22.4237 22.39C22.6265 22.1802 22.7398 21.8998 22.7398 21.6081C22.7398 21.3163 22.6265 21.036 22.4237 20.8262ZM10.375 18.25C8.81743 18.25 7.29488 17.7881 5.99984 16.9228C4.7048 16.0575 3.69544 14.8276 3.0994 13.3886C2.50336 11.9496 2.34741 10.3662 2.65127 8.83862C2.95513 7.31102 3.70515 5.90783 4.80649 4.80649C5.90783 3.70515 7.31102 2.95513 8.83862 2.65127C10.3662 2.34741 11.9496 2.50336 13.3886 3.0994C14.8276 3.69544 16.0575 4.7048 16.9228 5.99984C17.7881 7.29488 18.25 8.81743 18.25 10.375C18.25 12.4635 17.4203 14.4666 15.9434 15.9434C14.4666 17.4203 12.4635 18.25 10.375 18.25Z" fill="white"/>
</g>
<defs>
<clipPath id="clip0_309_4102">
<rect width="23" height="23" fill="white"/>
</clipPath>
</defs>
</svg>
