<svg width="60" height="60" viewBox="0 0 60 60" fill="none" xmlns="http://www.w3.org/2000/svg">
<circle cx="30" cy="30" r="30" fill="#43BBFF"/>
<path d="M31.5838 45.75H31.5848C32.8457 45.7484 34.0545 45.2466 34.9459 44.3547C35.8373 43.4629 36.3385 42.2538 36.3395 40.9928H36.3396L36.3395 40.9856L36.2991 36.3418H40.9909H40.9919C42.253 36.3402 43.462 35.8386 44.354 34.947C45.2459 34.0554 45.7479 32.8464 45.75 31.5852V31.584V28.416V28.4151C45.7484 27.1535 45.2466 25.9441 44.3547 25.052C43.4627 24.16 42.2533 23.6581 40.9919 23.6565V23.6565L40.9839 23.6565L36.3412 23.6999V19.0078V19.0072C36.3401 17.7459 35.8387 16.5365 34.9468 15.6446C34.055 14.7526 32.8457 14.2511 31.5844 14.25H31.5838L28.4162 14.25L28.4156 14.25C27.1543 14.2511 25.945 14.7526 25.0532 15.6446C24.1613 16.5365 23.6599 17.7459 23.6588 19.0072H23.6588L23.6588 19.0146L23.7007 23.6565L19.0091 23.6565L19.0081 23.6565C17.7467 23.6581 16.5373 24.16 15.6453 25.052C14.7534 25.9441 14.2516 27.1535 14.25 28.4151V28.416L14.25 31.584L14.25 31.5852C14.2521 32.8464 14.7541 34.0554 15.646 34.947C16.538 35.8386 17.747 36.3402 19.0081 36.3418V36.3419L19.0158 36.3418L23.6588 36.2999V40.9922V40.9928C23.6599 42.2541 24.1613 43.4635 25.0532 44.3554C25.945 45.2474 27.1543 45.7489 28.4156 45.75H28.4162H31.5838Z" stroke="white" stroke-width="1.5" stroke-linejoin="round"/>
</svg>
