<svg xmlns="http://www.w3.org/2000/svg" width="18" height="22" viewBox="0 0 18 22" fill="none">
  <path d="M3.91742 4.51501C4.58504 3.82742 5.37755 3.28213 6.24961 2.91016C7.12165 2.53819 8.05624 2.34678 9 2.34678C9.94376 2.34678 10.8783 2.53819 11.7504 2.91016C12.6224 3.28213 13.415 3.82742 14.0826 4.51501C15.3939 5.86585 16.1483 7.68637 16.1876 9.59686C16.2269 11.507 15.5483 13.3585 14.2941 14.7653L14.082 14.9935L12.4796 16.6219L12.4791 16.6224L9.77427 19.3295L9.66493 19.4253C9.47276 19.5736 9.23946 19.6535 9 19.6535C8.76063 19.6535 8.52741 19.5736 8.33529 19.4255L8.22718 19.3297L4.61163 15.7014L4.61104 15.7008L3.91794 14.9935L3.70585 14.7665C2.45168 13.3597 1.77308 11.5082 1.81238 9.59811C1.85168 7.6876 2.60612 5.86584 3.91742 4.51501ZM3.91742 4.51501L3.84568 4.44534L3.91742 4.51501ZM15.0816 16.014L15.0821 16.0135C16.6946 14.3526 17.6 12.101 17.6 9.75398C17.6 7.40692 16.6946 5.15536 15.0821 3.49446C14.2838 2.67215 13.3359 2.01966 12.2922 1.57443C11.2486 1.1292 10.1299 0.9 9 0.9C7.87012 0.9 6.75139 1.1292 5.70776 1.57443C4.66413 2.01966 3.71615 2.67215 2.91791 3.49446C1.30536 5.15537 0.4 7.40693 0.4 9.75398C0.4 12.101 1.30536 14.3526 2.91791 16.0135L2.91844 16.0141L4.76525 17.8878L4.76575 17.8883L7.24639 20.3695L7.24631 20.3695L7.24966 20.3726L7.41115 20.5201L7.41109 20.5202L7.41454 20.523C8.39509 21.341 9.83157 21.2887 10.7547 20.3696L10.7549 20.3694L13.7115 17.407L13.712 17.4064L15.0816 16.014ZM11.6475 12.4715C12.349 11.7493 12.7426 10.7704 12.7426 9.75023C12.7426 8.73009 12.349 7.75117 11.6475 7.02896C10.9458 6.30665 9.99356 5.90031 9 5.90031C8.00644 5.90031 7.05418 6.30665 6.35254 7.02896C5.651 7.75117 5.25737 8.73009 5.25737 9.75023C5.25737 10.7704 5.651 11.7493 6.35254 12.4715C7.05418 13.1938 8.00644 13.6002 9 13.6002C9.99356 13.6002 10.9458 13.1938 11.6475 12.4715ZM10.6454 8.05218C11.0824 8.50205 11.3284 9.11281 11.3284 9.75023C11.3284 10.3877 11.0824 10.9984 10.6454 11.4483C10.2085 11.8981 9.61658 12.1502 9 12.1502C8.38342 12.1502 7.79148 11.8981 7.35458 11.4483C6.91758 10.9984 6.67158 10.3877 6.67158 9.75023C6.67158 9.11281 6.91758 8.50205 7.35458 8.05218C7.79148 7.60241 8.38342 7.35029 9 7.35029C9.61658 7.35029 10.2085 7.60241 10.6454 8.05218Z" fill="#3E3A39" stroke="#3E3A39" stroke-width="0.2"/>
</svg>