<svg width="70" height="29" viewBox="0 0 70 29" fill="none" xmlns="http://www.w3.org/2000/svg">
<g clip-path="url(#clip0_309_4093)">
<path d="M1.01225 29C0.643382 29 0.386029 28.905 0.231618 28.7061C0.0772059 28.516 0 28.2567 0 27.9455C0 27.6689 0.0772059 27.4096 0.223039 27.1675C0.368873 26.9255 0.634804 26.8045 1.02083 26.8045H9.9853V20.5032C9.9853 20.1315 10.1054 19.8635 10.3456 19.6906C10.5858 19.5178 10.8603 19.4313 11.1691 19.4313C11.538 19.4313 11.8211 19.5351 12.0184 19.7339C12.2157 19.9327 12.3186 20.192 12.3186 20.5118V26.8132H21.3174C21.7034 26.8132 21.9694 26.9255 22.1152 27.1416C22.261 27.3664 22.3382 27.6084 22.3382 27.885C22.3382 28.1962 22.261 28.4641 22.1066 28.6716C21.9522 28.8877 21.6863 28.9914 21.326 28.9914H1.01225V29ZM13.1164 8.54013C12.9363 9.6984 12.636 10.7962 12.2071 11.8334C13.0478 13.3115 14.163 14.7032 15.5527 16.0257C16.9424 17.3395 18.5466 18.3941 20.3566 19.1634C20.6998 19.3103 20.9485 19.5178 21.0858 19.7857C21.223 20.0537 21.2402 20.313 21.1287 20.5723C20.9828 20.9786 20.7512 21.2206 20.4424 21.2898C20.1336 21.3675 19.8162 21.333 19.5074 21.2033C17.7831 20.5205 16.1875 19.5696 14.7206 18.3422C13.2451 17.1148 12.0098 15.7231 11.0061 14.15C10.0711 15.6626 8.91299 17.0024 7.53186 18.1693C6.15074 19.3363 4.60662 20.3649 2.90809 21.2552C2.59927 21.4194 2.26471 21.4799 1.92157 21.4194C1.56985 21.3675 1.33824 21.1687 1.20956 20.8403C1.08088 20.5291 1.08946 20.2352 1.22672 19.9586C1.36397 19.682 1.57843 19.4746 1.8701 19.319C3.07966 18.6707 4.1777 17.9705 5.17279 17.2012C6.16789 16.4406 7.05147 15.5935 7.82353 14.6686C8.59559 13.7437 9.23897 12.741 9.75368 11.6519C10.277 10.5628 10.663 9.37858 10.9203 8.08201C10.989 7.71032 11.1348 7.39914 11.3321 7.13983C11.5294 6.88051 11.8726 6.80272 12.3444 6.88916C12.7304 6.98424 12.9706 7.15712 13.0735 7.41643C13.1765 7.67575 13.1851 8.04743 13.1164 8.52284V8.54013Z" fill="white"/>
<path d="M65.9252 13.519C66.011 13.4066 66.0453 13.251 66.0453 13.0522V10.2862C66.0453 10.0615 66.0024 9.89723 65.9252 9.78486C65.848 9.67249 65.685 9.62062 65.4448 9.62062H50.4326C50.0637 9.62062 49.8063 9.5169 49.6519 9.3008C49.4975 9.08471 49.4203 8.82539 49.4203 8.51422C49.4203 8.23761 49.4889 7.98694 49.6433 7.77085C49.7892 7.54611 50.0551 7.44238 50.4411 7.44238H66.0539C66.9289 7.44238 67.538 7.61526 67.8811 7.95237C68.2157 8.28948 68.3872 8.81675 68.3872 9.5169V13.8042C68.3872 14.5044 68.2157 15.023 67.8811 15.3688C67.5465 15.7059 66.9375 15.8787 66.0539 15.8787H52.2512C52.011 15.8787 51.8566 15.9306 51.7708 16.043C51.685 16.1553 51.6507 16.3196 51.6507 16.5443V19.3881C51.6507 19.5869 51.6936 19.7512 51.7708 19.8549C51.8566 19.9673 52.011 20.0191 52.2512 20.0191H67.7867C68.1728 20.0191 68.4387 20.1315 68.5845 20.3476C68.7304 20.5723 68.8076 20.8144 68.8076 21.091C68.8076 21.4021 68.7304 21.6701 68.576 21.8776C68.4215 22.0937 68.1556 22.1974 67.7953 22.1974H60.0061V26.8132H69.0049C69.3909 26.8132 69.6568 26.9255 69.8027 27.1416C69.9485 27.3664 70.0257 27.6084 70.0257 27.885C70.0257 28.1962 69.9485 28.4641 69.7941 28.6716C69.6397 28.8877 69.3737 28.9914 69.0134 28.9914H48.7083C48.3394 28.9914 48.0821 28.8963 47.9277 28.6975C47.7733 28.5074 47.696 28.248 47.696 27.9369C47.696 27.6603 47.7733 27.401 47.9191 27.1589C48.0649 26.9169 48.3309 26.7959 48.7169 26.7959H57.6899V22.1801H51.625C50.8014 22.1801 50.2095 21.9986 49.8407 21.6442C49.4718 21.2811 49.2916 20.7193 49.2916 19.9413V15.9047C49.2916 15.1267 49.4718 14.5649 49.8407 14.2018C50.2095 13.8388 50.8014 13.6659 51.625 13.6659H65.4791C65.7193 13.6659 65.8737 13.6141 65.9595 13.5017L65.9252 13.519Z" fill="white"/>
<path d="M45.9461 27.1502C45.8002 26.9255 45.5343 26.8218 45.1483 26.8218H36.1495V22.2838C38.3198 22.1109 40.087 21.3416 41.4167 19.9931C43.4069 17.9705 44.3505 14.7809 44.3162 10.2343C44.3162 9.58599 43.7843 9.05872 43.1409 9.05872H43.1324C42.4804 9.05872 41.9571 9.59463 41.9657 10.2516C42 14.0808 41.2537 16.7949 39.7439 18.3162C38.663 19.414 37.1703 19.9499 35.1801 19.9499C32.8211 19.9499 31.114 19.3794 29.9645 18.2125C28.5061 16.7258 27.8456 14.1931 27.8971 10.2602C27.8971 9.60328 27.3823 9.06736 26.739 9.05872H26.7218C26.0784 9.05872 25.5551 9.57735 25.5466 10.2256C25.4865 14.8414 26.3615 17.9013 28.2917 19.8721C29.6299 21.2379 31.4828 22.0244 33.8076 22.2492V26.8131H24.8346C24.4485 26.8131 24.1826 26.9341 24.0368 27.1762C23.8909 27.4182 23.8137 27.6775 23.8137 27.9541C23.8137 28.2653 23.8909 28.5246 24.0453 28.7148C24.1998 28.9049 24.4571 29.0086 24.826 29.0086H45.1311C45.5 29.0086 45.7574 28.9049 45.9118 28.6888C46.0662 28.4727 46.1434 28.2134 46.1434 27.9022C46.1434 27.6256 46.0662 27.375 45.9203 27.1589L45.9461 27.1502Z" fill="white"/>
<path d="M32.0833 13.64C32.5239 13.64 32.8811 13.2801 32.8811 12.8361C32.8811 12.3921 32.5239 12.0322 32.0833 12.0322C31.6427 12.0322 31.2855 12.3921 31.2855 12.8361C31.2855 13.2801 31.6427 13.64 32.0833 13.64Z" fill="white"/>
<path d="M37.9595 13.64C38.4001 13.64 38.7573 13.2801 38.7573 12.8361C38.7573 12.3921 38.4001 12.0322 37.9595 12.0322C37.5189 12.0322 37.1617 12.3921 37.1617 12.8361C37.1617 13.2801 37.5189 13.64 37.9595 13.64Z" fill="white"/>
<path d="M35.1116 13.9338C34.8628 13.9165 34.6226 13.9338 34.3824 13.9683C34.1594 14.0029 33.9878 14.1931 33.9878 14.4265C33.9878 14.6253 34.125 14.7636 34.2623 14.8846C34.3395 14.9537 34.4167 15.0229 34.5025 15.0834C34.6398 15.1958 34.777 15.3168 34.9743 15.3081C35.1802 15.3081 35.3346 15.1958 35.4375 15.0229C35.489 14.9365 35.5405 14.8587 35.592 14.7809L35.5319 14.8587C35.6091 14.7636 35.6949 14.6685 35.7807 14.5907C36.0037 14.3919 35.875 14.0029 35.6091 13.9338C35.4032 13.8733 35.1802 13.856 34.9657 13.8819C34.8542 13.8992 34.7684 13.9165 34.6912 13.9943C34.6226 14.0634 34.5711 14.1758 34.5797 14.2709C34.5883 14.366 34.614 14.4783 34.6912 14.5475C34.7599 14.6166 34.8714 14.6771 34.9657 14.6599C35.0858 14.6426 35.2059 14.6426 35.3174 14.6599L35.2145 14.6426C35.2746 14.6426 35.3346 14.6599 35.4032 14.6771L35.2317 14.0202C35.1373 14.098 35.0515 14.1931 34.9829 14.2882C34.9314 14.3573 34.8799 14.4265 34.8285 14.4956C34.7942 14.5475 34.7684 14.5993 34.7341 14.6426L34.7942 14.5648C34.7942 14.5648 34.777 14.5907 34.7599 14.5993L34.8371 14.5388C34.8371 14.5388 34.8199 14.5475 34.8113 14.5561L34.9057 14.5129C34.9057 14.5129 34.8885 14.5129 34.88 14.5216L34.9829 14.5043C34.9829 14.5043 34.9572 14.5043 34.9486 14.5043L35.0515 14.5216C35.0515 14.5216 35.0258 14.5216 35.0172 14.5129L35.1116 14.5561C35.0687 14.5388 35.0258 14.5043 34.9829 14.4697L35.0601 14.5302C34.9228 14.4265 34.7684 14.3055 34.6569 14.1758L34.717 14.2536C34.717 14.2536 34.6998 14.2363 34.6998 14.219L34.7427 14.3141V14.2968C34.7427 14.2968 34.7427 14.366 34.7513 14.4005V14.3832C34.7513 14.3832 34.7427 14.4524 34.7341 14.487V14.4697C34.7341 14.4697 34.7084 14.5302 34.6998 14.5648C34.6998 14.5648 34.6569 14.608 34.6398 14.6339H34.6483C34.6483 14.6339 34.5969 14.6685 34.5711 14.6858C34.5711 14.6858 34.5883 14.6771 34.5969 14.6771L34.5025 14.7204C34.5025 14.7204 34.5454 14.7117 34.5625 14.7117L34.4596 14.729C34.6655 14.7031 34.88 14.6944 35.0858 14.7117C35.1802 14.7117 35.3003 14.6599 35.3603 14.5993C35.4204 14.5388 35.4804 14.4178 35.4719 14.3227C35.4633 14.098 35.3003 13.9424 35.0773 13.9251L35.1116 13.9338Z" fill="white"/>
<path d="M28.9607 7.2003C29.8186 5.43696 30.8737 3.77735 32.1433 2.29061H30.4791C31.663 3.69955 32.7781 5.15171 33.8333 6.65574C34.2193 7.20894 35.1715 7.54605 35.6777 6.89777C37.033 5.18629 38.4828 3.56125 40.0355 2.02265C39.4179 1.94486 38.8002 1.86707 38.1911 1.78063C39.1691 3.17228 40.1213 4.58987 41.0306 6.03338C41.837 7.32131 43.8786 6.12847 43.0637 4.84054C42.1544 3.39702 41.2107 1.97944 40.2242 0.587781C39.7867 -0.034574 38.9546 -0.224738 38.3799 0.345754C36.8272 1.87571 35.3774 3.50939 34.022 5.22087C34.6397 5.29866 35.2573 5.37645 35.8664 5.46289C34.6997 3.79464 33.4558 2.17824 32.1433 0.622356C31.7487 0.15559 30.8737 0.164234 30.4791 0.622356C29.0723 2.26468 27.8713 4.06259 26.9277 6.0161C26.6531 6.59523 26.7732 7.29538 27.348 7.64113C27.8627 7.94367 28.6777 7.79672 28.9607 7.21759V7.2003Z" fill="white"/>
</g>
<defs>
<clipPath id="clip0_309_4093">
<rect width="70" height="29" fill="white"/>
</clipPath>
</defs>
</svg>
