<svg xmlns="http://www.w3.org/2000/svg" width="393" height="86" viewBox="0 0 393 86" fill="none">
<mask id="path-1-inside-1_180_3559" fill="white">
<path fill-rule="evenodd" clip-rule="evenodd" d="M233.469 12.7496C238.149 5.88009 242.155 0 249.908 0H393V86H0V0H143.092C149.255 0 153.3 5.29271 158.198 11.7017C165.714 21.5365 175.239 34 197.508 34C218.993 34 226.896 22.3987 233.469 12.7496Z"/>
</mask>
<path fill-rule="evenodd" clip-rule="evenodd" d="M233.469 12.7496C238.149 5.88009 242.155 0 249.908 0H393V86H0V0H143.092C149.255 0 153.3 5.29271 158.198 11.7017C165.714 21.5365 175.239 34 197.508 34C218.993 34 226.896 22.3987 233.469 12.7496Z" fill="white"/>
<path d="M233.469 12.7496L234.296 13.3126L233.469 12.7496ZM393 0H394V-1H393V0ZM393 86V87H394V86H393ZM0 86H-1V87H0V86ZM0 0V-1H-1V0H0ZM158.198 11.7017L158.992 11.0945V11.0945L158.198 11.7017ZM249.908 -1C245.735 -1 242.564 0.598149 239.863 3.05959C237.203 5.48306 234.965 8.77828 232.643 12.1866L234.296 13.3126C236.654 9.85143 238.758 6.77184 241.21 4.53788C243.62 2.3419 246.328 1 249.908 1V-1ZM249.908 1H393V-1H249.908V1ZM392 0V86H394V0H392ZM393 85H0V87H393V85ZM1 86V0H-1V86H1ZM0 1H143.092V-1H0V1ZM158.992 11.0945C156.561 7.91272 154.264 4.90104 151.783 2.69952C149.276 0.474916 146.498 -1 143.092 -1V1C145.849 1 148.175 2.17144 150.455 4.19543C152.762 6.2425 154.937 9.08165 157.403 12.3089L158.992 11.0945ZM197.508 33C186.581 33 178.835 29.9486 172.9 25.7242C166.936 21.4787 162.759 16.0235 158.992 11.0945L157.403 12.3089C161.152 17.2147 165.496 22.9087 171.74 27.3536C178.015 31.8196 186.166 35 197.508 35V33ZM232.643 12.1866C229.346 17.0259 225.812 22.2004 220.481 26.1928C215.183 30.1603 208.05 33 197.508 33V35C208.45 35 216.011 32.039 221.68 27.7936C227.315 23.5732 231.019 18.1224 234.296 13.3126L232.643 12.1866Z" fill="white" mask="url(#path-1-inside-1_180_3559)"/>
</svg>