<svg xmlns="http://www.w3.org/2000/svg" width="12" height="12" viewBox="0 0 12 12" fill="none">
  <path d="M11.0983 5.51199L8.80802 7.51074L9.49407 10.4865C9.53038 10.6421 9.52002 10.8049 9.46429 10.9546C9.40856 11.1043 9.30994 11.2343 9.18075 11.3282C9.05157 11.4222 8.89755 11.476 8.73795 11.4829C8.57836 11.4898 8.42027 11.4495 8.28345 11.3671L5.68802 9.79285L3.09818 11.3671C2.96136 11.4495 2.80327 11.4898 2.64367 11.4829C2.48407 11.476 2.33005 11.4222 2.20087 11.3282C2.07168 11.2343 1.97306 11.1043 1.91733 10.9546C1.86161 10.8049 1.85125 10.6421 1.88755 10.4865L2.57259 7.51379L0.281847 5.51199C0.160688 5.4075 0.0730765 5.26956 0.0300006 5.11547C-0.0130752 4.96138 -0.00969825 4.798 0.039708 4.64582C0.0891142 4.49364 0.18235 4.35944 0.307724 4.26004C0.433098 4.16064 0.585029 4.10047 0.744464 4.08707L3.76392 3.82555L4.94255 1.0143C5.0041 0.866787 5.10792 0.740784 5.24093 0.652155C5.37395 0.563527 5.53021 0.516235 5.69005 0.516235C5.84989 0.516235 6.00615 0.563527 6.13917 0.652155C6.27218 0.740784 6.376 0.866787 6.43755 1.0143L7.61974 3.82555L10.6382 4.08707C10.7976 4.10047 10.9495 4.16064 11.0749 4.26004C11.2003 4.35944 11.2935 4.49364 11.3429 4.64582C11.3923 4.798 11.3957 4.96138 11.3526 5.11547C11.3096 5.26956 11.222 5.4075 11.1008 5.51199H11.0983Z" fill="#F6C944"/>
</svg>