<svg xmlns="http://www.w3.org/2000/svg" width="16" height="16" viewBox="0 0 16 16" fill="none">
  <path d="M1.14284 5.14296C0.991287 5.14296 0.845942 5.08276 0.738779 4.97559C0.631615 4.86843 0.571411 4.72309 0.571411 4.57153V1.14296C0.571411 0.991409 0.631615 0.846064 0.738779 0.738901C0.845942 0.631737 0.991287 0.571533 1.14284 0.571533H14.8571C15.0087 0.571533 15.154 0.631737 15.2612 0.738901C15.3684 0.846064 15.4286 0.991409 15.4286 1.14296V4.57153C15.4286 4.72309 15.3684 4.86843 15.2612 4.97559C15.154 5.08276 15.0087 5.14296 14.8571 5.14296" stroke="black" stroke-linecap="round" stroke-linejoin="round"/>
  <path d="M11.4286 3.42871H4.57143C4.25584 3.42871 4 3.68455 4 4.00014V12.0001C4 12.3157 4.25584 12.5716 4.57143 12.5716H11.4286C11.7442 12.5716 12 12.3157 12 12.0001V4.00014C12 3.68455 11.7442 3.42871 11.4286 3.42871Z" stroke="black" stroke-linecap="round" stroke-linejoin="round"/>
  <path d="M7.99993 9.71446C8.9467 9.71446 9.71422 8.94695 9.71422 8.00017C9.71422 7.0534 8.9467 6.28589 7.99993 6.28589C7.05316 6.28589 6.28564 7.0534 6.28564 8.00017C6.28564 8.94695 7.05316 9.71446 7.99993 9.71446Z" stroke="black" stroke-linecap="round" stroke-linejoin="round"/>
  <path d="M4 15.4287H12" stroke="black" stroke-linecap="round" stroke-linejoin="round"/>
</svg>