<svg xmlns="http://www.w3.org/2000/svg" width="16" height="20" viewBox="0 0 16 20" fill="none">
  <path d="M3.17909 0.465884L4.34056 0.116548C4.97682 -0.0753143 5.66115 -0.0291279 6.26586 0.246489C6.87057 0.522106 7.35434 1.00832 7.62691 1.61441L8.52463 3.6109C8.75898 4.13222 8.82424 4.71383 8.71125 5.27412C8.59827 5.83441 8.3127 6.34527 7.89463 6.73502L6.40672 8.12142C6.36325 8.16192 6.33572 8.21665 6.32909 8.27569C6.2853 8.6708 6.55302 9.44014 7.17108 10.51C7.61894 11.2873 8.02601 11.8337 8.37136 12.1393C8.61321 12.3533 8.74558 12.399 8.80231 12.3831L10.8028 11.771C11.3491 11.6039 11.934 11.612 12.4755 11.794C13.017 11.9761 13.488 12.323 13.8224 12.7862L15.0963 14.5538C15.4842 15.0912 15.6638 15.7511 15.6019 16.4109C15.5401 17.0708 15.2409 17.6857 14.7599 18.1417L13.8771 18.9777C13.4091 19.4209 12.8343 19.7353 12.2087 19.8904C11.5831 20.0455 10.9279 20.0358 10.3071 19.8625C7.5662 19.0971 5.1089 16.7842 2.90739 12.9713C0.703881 9.1535 -0.0704306 5.86517 0.644166 3.10531C0.804577 2.4846 1.12217 1.91568 1.56635 1.45338C2.01052 0.991078 2.56529 0.650986 3.17909 0.465884ZM3.61004 1.89607C3.24168 2.00685 2.90807 2.21065 2.64136 2.48782C2.37465 2.76499 2.18383 3.10619 2.08729 3.47854C1.48815 5.79948 2.17388 8.71459 4.20023 12.2249C6.22459 15.7302 8.40321 17.7804 10.7092 18.4253C11.0817 18.5292 11.4748 18.5349 11.8501 18.4418C12.2255 18.3486 12.5703 18.1599 12.851 17.8939L13.7328 17.0579C13.9516 16.8506 14.0877 16.571 14.1159 16.271C14.1441 15.971 14.0624 15.671 13.8861 15.4266L12.6122 13.66C12.4601 13.4493 12.2459 13.2914 11.9996 13.2085C11.7533 13.1257 11.4872 13.1221 11.2387 13.1982L9.23326 13.8123C8.0688 14.1587 7.01283 13.2221 5.87824 11.2565C5.11288 9.93279 4.75658 8.90768 4.84615 8.11047C4.89193 7.69644 5.08501 7.31426 5.38857 7.02962L6.87648 5.64322C7.06643 5.46596 7.19612 5.23368 7.24735 4.97897C7.29857 4.72426 7.26877 4.4599 7.16212 4.22299L6.26539 2.2265C6.14148 1.951 5.92156 1.73 5.64668 1.60473C5.37179 1.47947 5.06072 1.4585 4.77151 1.54574L3.61004 1.89607Z" fill="#3E3A39"/>
</svg>