<svg xmlns="http://www.w3.org/2000/svg" width="20" height="20" viewBox="0 0 20 20" fill="none">
  <path fill-rule="evenodd" clip-rule="evenodd" d="M17.0241 2.9759C16.321 2.27298 15.3674 1.8781 14.3732 1.8781C13.379 1.8781 12.4254 2.27298 11.7223 2.9759L2.9734 11.7248C2.29023 12.4318 1.91207 13.3788 1.92038 14.3619C1.92869 15.3451 2.32281 16.2856 3.01783 16.9809C3.71286 17.6763 4.6532 18.0709 5.63631 18.0796C6.61942 18.0884 7.56664 17.7107 8.27397 17.0278H8.27522L8.89639 16.4029C9.0726 16.2315 9.3091 16.1362 9.55494 16.1374C9.80077 16.1387 10.0363 16.2365 10.2107 16.4098C10.3851 16.5831 10.4844 16.8179 10.4873 17.0637C10.4903 17.3095 10.3965 17.5467 10.2262 17.724L9.6038 18.3502L9.6013 18.3527C8.54654 19.4074 7.11597 20 5.62431 20C4.13265 20 2.70209 19.4074 1.64732 18.3527C0.59256 17.2979 0 15.8674 0 14.3757C0 12.884 0.59256 11.4535 1.64732 10.3987L10.3962 1.64982C11.4503 0.594398 12.8805 0.000938674 14.3722 1.11257e-06C15.8638 -0.000936449 17.2948 0.590724 18.3502 1.64482C19.4056 2.69892 19.9991 4.12912 20 5.62078C20.0009 7.11244 19.4093 8.54338 18.3552 9.5988L14.037 14.0395C13.7355 14.3574 13.3733 14.6118 12.9719 14.7875C12.5705 14.9632 12.138 15.0568 11.6999 15.0626C11.2617 15.0684 10.8268 14.9864 10.4209 14.8214C10.015 14.6564 9.64621 14.4118 9.33637 14.1019C9.02653 13.7921 8.78189 13.4233 8.6169 13.0174C8.45191 12.6115 8.36991 12.1766 8.37573 11.7385C8.38155 11.3003 8.47508 10.8678 8.6508 10.4664C8.82652 10.065 9.08086 9.70283 9.39883 9.40133L13.7108 5.08813C13.7972 4.99856 13.9006 4.9271 14.0149 4.87792C14.1293 4.82874 14.2523 4.80283 14.3767 4.80169C14.5012 4.80055 14.6246 4.82421 14.7399 4.87128C14.8551 4.91836 14.9598 4.98792 15.0478 5.07589C15.1359 5.16386 15.2055 5.26849 15.2527 5.38366C15.2999 5.49884 15.3237 5.62226 15.3227 5.74673C15.3216 5.87119 15.2958 5.99421 15.2468 6.10859C15.1977 6.22298 15.1263 6.32645 15.0369 6.41296L10.7249 10.7262C10.594 10.8564 10.4901 11.0111 10.419 11.1816C10.3479 11.352 10.311 11.5347 10.3106 11.7194C10.3101 11.904 10.346 12.087 10.4163 12.2577C10.4865 12.4285 10.5897 12.5838 10.7199 12.7147C10.8501 12.8455 11.0049 12.9495 11.1753 13.0206C11.3457 13.0917 11.5285 13.1285 11.7131 13.129C11.8978 13.1294 12.0807 13.0935 12.2515 13.0233C12.4222 12.9531 12.5775 12.8499 12.7084 12.7197L17.0253 8.27897C17.7283 7.57583 18.1232 6.6223 18.1232 5.62806C18.1232 4.63382 17.7283 3.68029 17.0253 2.97715L17.0241 2.9759Z" fill="#3E3A39"/>
</svg>