<svg xmlns="http://www.w3.org/2000/svg" width="24" height="23" viewBox="0 0 24 23" fill="none">
  <g clip-path="url(#clip0_192_3395)">
    <path d="M22.9517 20.8263L18.778 16.6863C20.3981 14.6662 21.1826 12.1022 20.9704 9.52146C20.7581 6.94071 19.5651 4.53938 17.6367 2.81122C15.7082 1.08307 13.191 0.159448 10.6025 0.230279C8.014 0.301109 5.55102 1.36101 3.71999 3.19203C1.88896 5.02306 0.829063 7.48604 0.758233 10.0745C0.687402 12.663 1.61102 15.1803 3.33918 17.1087C5.06733 19.0371 7.46867 20.2301 10.0494 20.4424C12.6302 20.6547 15.1942 19.8701 17.2142 18.25L21.3542 22.39C21.4588 22.4954 21.5832 22.5791 21.7203 22.6363C21.8574 22.6934 22.0044 22.7228 22.153 22.7228C22.3015 22.7228 22.4485 22.6934 22.5856 22.6363C22.7227 22.5791 22.8471 22.4954 22.9517 22.39C23.1545 22.1802 23.2678 21.8999 23.2678 21.6081C23.2678 21.3164 23.1545 21.036 22.9517 20.8263ZM10.903 18.25C9.34543 18.25 7.82288 17.7881 6.52784 16.9228C5.2328 16.0575 4.22344 14.8276 3.6274 13.3886C3.03136 11.9497 2.87541 10.3663 3.17927 8.83866C3.48313 7.31106 4.23315 5.90787 5.33449 4.80653C6.43583 3.70519 7.83902 2.95517 9.36662 2.65131C10.8942 2.34746 12.4776 2.50341 13.9166 3.09945C15.3556 3.69549 16.5855 4.70485 17.4508 5.99988C18.3161 7.29492 18.778 8.81747 18.778 10.375C18.778 12.4636 17.9483 14.4666 16.4714 15.9435C14.9946 17.4203 12.9915 18.25 10.903 18.25Z" fill="white"/>
  </g>
  <defs>
    <clipPath id="clip0_192_3395">
      <rect width="23" height="23" fill="white" transform="translate(0.527954)"/>
    </clipPath>
  </defs>
</svg>