<svg xmlns="http://www.w3.org/2000/svg" width="22" height="24" viewBox="0 0 22 24" fill="none">
  <path d="M11.0001 15.182C12.7574 15.182 14.182 13.7573 14.182 12C14.182 10.2427 12.7574 8.81805 11.0001 8.81805C9.24272 8.81805 7.81812 10.2427 7.81812 12C7.81812 13.7573 9.24272 15.182 11.0001 15.182Z" stroke="black" stroke-width="2"/>
  <path d="M12.872 1.55473C12.4828 1.39351 11.9885 1.39351 11 1.39351C10.0115 1.39351 9.51721 1.39351 9.12795 1.55473C8.87041 1.66134 8.6364 1.81766 8.4393 2.01476C8.2422 2.21185 8.08588 2.44586 7.97927 2.70341C7.88169 2.93994 7.84245 3.21677 7.8276 3.61875C7.82099 3.90936 7.74063 4.19352 7.59406 4.44454C7.44749 4.69557 7.23952 4.90522 6.98968 5.05381C6.73608 5.19598 6.4505 5.27135 6.15976 5.27284C5.86903 5.27432 5.58269 5.20187 5.32765 5.0623C4.97127 4.8735 4.71353 4.76956 4.45791 4.73562C3.90035 4.66229 3.33649 4.81337 2.89027 5.15563C2.55723 5.41337 2.30904 5.84081 1.81478 6.69676C1.32051 7.5527 1.07232 7.98014 1.01823 8.3991C0.981778 8.67535 1.00011 8.95607 1.07218 9.22523C1.14425 9.4944 1.26864 9.74672 1.43824 9.9678C1.59522 10.1714 1.81478 10.3422 2.15524 10.5565C2.65693 10.8715 2.97937 11.4082 2.97937 12C2.97937 12.5918 2.65693 13.1285 2.15524 13.4425C1.81478 13.6578 1.59416 13.8286 1.43824 14.0322C1.26864 14.2533 1.14425 14.5056 1.07218 14.7748C1.00011 15.0439 0.981778 15.3247 1.01823 15.6009C1.07338 16.0188 1.32051 16.4473 1.81371 17.3033C2.30904 18.1592 2.55617 18.5866 2.89027 18.8444C3.11135 19.014 3.36368 19.1384 3.63284 19.2104C3.902 19.2825 4.18273 19.3008 4.45897 19.2644C4.71353 19.2305 4.97127 19.1265 5.32765 18.9377C5.58269 18.7981 5.86903 18.7257 6.15976 18.7272C6.4505 18.7287 6.73608 18.804 6.98968 18.9462C7.50198 19.2432 7.80638 19.7894 7.8276 20.3813C7.84245 20.7843 7.88063 21.0601 7.97927 21.2966C8.08588 21.5541 8.2422 21.7882 8.4393 21.9853C8.6364 22.1824 8.87041 22.3387 9.12795 22.4453C9.51721 22.6065 10.0115 22.6065 11 22.6065C11.9885 22.6065 12.4828 22.6065 12.872 22.4453C13.1296 22.3387 13.3636 22.1824 13.5607 21.9853C13.7578 21.7882 13.9141 21.5541 14.0207 21.2966C14.1183 21.0601 14.1576 20.7843 14.1724 20.3813C14.1936 19.7894 14.498 19.2421 15.0103 18.9462C15.2639 18.804 15.5495 18.7287 15.8402 18.7272C16.131 18.7257 16.4173 18.7981 16.6724 18.9377C17.0287 19.1265 17.2865 19.2305 17.541 19.2644C17.8173 19.3008 18.098 19.2825 18.3672 19.2104C18.6363 19.1384 18.8886 19.014 19.1097 18.8444C19.4438 18.5877 19.691 18.1592 20.1852 17.3033C20.6795 16.4473 20.9277 16.0199 20.9818 15.6009C21.0182 15.3247 20.9999 15.0439 20.9278 14.7748C20.8558 14.5056 20.7314 14.2533 20.5618 14.0322C20.4048 13.8286 20.1852 13.6578 19.8448 13.4435C19.5963 13.2925 19.3903 13.0808 19.2461 12.8283C19.102 12.5758 19.0244 12.2908 19.0206 12C19.0206 11.4082 19.3431 10.8715 19.8448 10.5575C20.1852 10.3422 20.4058 10.1714 20.5618 9.9678C20.7314 9.74672 20.8558 9.4944 20.9278 9.22523C20.9999 8.95607 21.0182 8.67535 20.9818 8.3991C20.9266 7.9812 20.6795 7.5527 20.1863 6.69676C19.691 5.84081 19.4438 5.41337 19.1097 5.15563C18.8886 4.98603 18.6363 4.86164 18.3672 4.78957C18.098 4.7175 17.8173 4.69917 17.541 4.73562C17.2865 4.76956 17.0287 4.8735 16.6713 5.0623C16.4164 5.20168 16.1302 5.27403 15.8397 5.27254C15.5492 5.27106 15.2638 5.19579 15.0103 5.05381C14.7605 4.90522 14.5525 4.69557 14.4059 4.44454C14.2594 4.19352 14.179 3.90936 14.1724 3.61875C14.1576 3.21571 14.1194 2.93994 14.0207 2.70341C13.9141 2.44586 13.7578 2.21185 13.5607 2.01476C13.3636 1.81766 13.1296 1.66134 12.872 1.55473Z" stroke="black" stroke-width="2"/>
</svg>