<svg xmlns="http://www.w3.org/2000/svg" width="18" height="20" viewBox="0 0 18 20" fill="none">
  <path fill-rule="evenodd" clip-rule="evenodd" d="M14.1509 1.87575e-07C13.661 -0.000163409 13.1771 0.106688 12.7332 0.313017C12.2893 0.519346 11.8963 0.820126 11.5819 1.19414C11.2675 1.56815 11.0394 2.00628 10.9136 2.47763C10.7878 2.94898 10.7675 3.44206 10.854 3.92208L5.98073 7.31903C5.95635 7.33581 5.93296 7.35396 5.91067 7.37339C5.41627 6.98865 4.82321 6.74996 4.19913 6.68453C3.57504 6.61911 2.94505 6.72959 2.38099 7.00336C1.81693 7.27714 1.3415 7.7032 1.00892 8.23296C0.676344 8.76272 0.5 9.37486 0.5 9.99956C0.5 10.6243 0.676344 11.2364 1.00892 11.7662C1.3415 12.2959 1.81693 12.722 2.38099 12.9958C2.94505 13.2695 3.57504 13.38 4.19913 13.3146C4.82321 13.2492 5.41627 13.0105 5.91067 12.6257C5.93293 12.6455 5.95632 12.664 5.98073 12.6811L10.854 16.0781C10.7093 16.8809 10.8654 17.7087 11.2926 18.4047C11.7198 19.1007 12.3885 19.6166 13.1721 19.8547C13.9558 20.0929 14.7999 20.0368 15.5448 19.697C16.2896 19.3572 16.8835 18.7573 17.2139 18.0109C17.5444 17.2646 17.5884 16.4235 17.3378 15.6469C17.0871 14.8704 16.5592 14.2123 15.8539 13.7972C15.1486 13.3821 14.3149 13.2389 13.5106 13.3946C12.7063 13.5503 11.9873 13.9942 11.4897 14.6422L6.87502 11.4268C7.08108 10.9939 7.19647 10.5108 7.19647 10.0001C7.19647 9.4893 7.08108 9.00519 6.87502 8.5734L11.4907 5.35696C11.8365 5.8075 12.292 6.1628 12.8141 6.38926C13.3362 6.61572 13.9077 6.70587 14.4746 6.65117C15.0415 6.59647 15.585 6.39873 16.0537 6.07666C16.5224 5.75458 16.9009 5.31882 17.1532 4.81056C17.4056 4.30231 17.5236 3.73837 17.4961 3.17207C17.4685 2.60577 17.2963 2.05582 16.9958 1.57423C16.6952 1.09265 16.2762 0.695338 15.7784 0.419874C15.2806 0.14441 14.7205 -0.000102728 14.1509 1.87575e-07ZM12.3479 3.33336C12.3479 2.85733 12.5379 2.40079 12.876 2.06418C13.2142 1.72758 13.6728 1.53847 14.1509 1.53847C14.6291 1.53847 15.0877 1.72758 15.4259 2.06418C15.764 2.40079 15.954 2.85733 15.954 3.33336C15.954 3.80939 15.764 4.26593 15.4259 4.60253C15.0877 4.93914 14.6291 5.12824 14.1509 5.12824C13.6728 5.12824 13.2142 4.93914 12.876 4.60253C12.5379 4.26593 12.3479 3.80939 12.3479 3.33336ZM3.84802 8.20519C3.36983 8.20519 2.91123 8.39429 2.5731 8.7309C2.23497 9.0675 2.04501 9.52404 2.04501 10.0001C2.04501 10.4761 2.23497 10.9326 2.5731 11.2692C2.91123 11.6059 3.36983 11.795 3.84802 11.795C4.32621 11.795 4.78481 11.6059 5.12294 11.2692C5.46107 10.9326 5.65103 10.4761 5.65103 10.0001C5.65103 9.52404 5.46107 9.0675 5.12294 8.7309C4.78481 8.39429 4.32621 8.20519 3.84802 8.20519ZM14.1509 14.8719C13.6728 14.8719 13.2142 15.061 12.876 15.3976C12.5379 15.7342 12.3479 16.1908 12.3479 16.6668C12.3479 17.1428 12.5379 17.5994 12.876 17.936C13.2142 18.2726 13.6728 18.4617 14.1509 18.4617C14.6291 18.4617 15.0877 18.2726 15.4259 17.936C15.764 17.5994 15.954 17.1428 15.954 16.6668C15.954 16.1908 15.764 15.7342 15.4259 15.3976C15.0877 15.061 14.6291 14.8719 14.1509 14.8719Z" fill="#3E3A39"/>
</svg>