<svg xmlns="http://www.w3.org/2000/svg" width="93" height="93" viewBox="0 0 93 93" fill="none">
  <g clip-path="url(#clip0_192_4560)">
    <path d="M46.5 92.5969C71.9586 92.5969 92.5969 71.9586 92.5969 46.5C92.5969 21.0415 71.9586 0.403198 46.5 0.403198C21.0415 0.403198 0.403198 21.0415 0.403198 46.5C0.403198 71.9586 21.0415 92.5969 46.5 92.5969Z" fill="white" stroke="#231815" stroke-miterlimit="10"/>
    <path d="M75.1643 39.9285C75.1643 30.5592 65.4805 22.9637 53.5471 22.9637C45.6292 22.9637 38.7029 26.3099 34.9375 31.2929C34.5746 31.7767 34.0183 32.0509 33.4216 32.0428C33.3974 32.0428 33.3813 32.0428 33.3571 32.0428C24.7779 32.0428 17.8275 38.5175 17.8275 46.5C17.8275 51.104 20.1497 55.2001 23.762 57.8448C24.0845 58.0867 24.3264 58.4173 24.4393 58.8043C26.4067 65.279 32.8007 70.0362 40.4042 70.0362C48.0078 70.0362 55.0066 64.8275 56.6192 57.8851C56.7804 57.1917 57.3368 56.6434 58.0383 56.5305C67.8269 54.9098 75.1643 48.0965 75.1643 39.9366V39.9285Z" fill="url(#paint0_radial_192_4560)" stroke="#231815" stroke-linecap="round" stroke-linejoin="round"/>
    <path d="M66.932 43.9037C67.3194 43.9037 67.6334 43.5896 67.6334 43.2022C67.6334 42.8148 67.3194 42.5007 66.932 42.5007C66.5445 42.5007 66.2305 42.8148 66.2305 43.2022C66.2305 43.5896 66.5445 43.9037 66.932 43.9037Z" fill="#D83620"/>
    <path d="M63.0052 50.1848C63.3926 50.1848 63.7067 49.8708 63.7067 49.4834C63.7067 49.0959 63.3926 48.7819 63.0052 48.7819C62.6178 48.7819 62.3037 49.0959 62.3037 49.4834C62.3037 49.8708 62.6178 50.1848 63.0052 50.1848Z" fill="#D83620"/>
    <path d="M53.5552 29.1643C53.9427 29.1643 54.2567 28.8503 54.2567 28.4628C54.2567 28.0754 53.9427 27.7614 53.5552 27.7614C53.1678 27.7614 52.8538 28.0754 52.8538 28.4628C52.8538 28.8503 53.1678 29.1643 53.5552 29.1643Z" fill="#D83620"/>
    <path d="M66.2304 36.8645C66.6178 36.8645 66.9319 36.5505 66.9319 36.163C66.9319 35.7756 66.6178 35.4615 66.2304 35.4615C65.843 35.4615 65.5289 35.7756 65.5289 36.163C65.5289 36.5505 65.843 36.8645 66.2304 36.8645Z" fill="#D83620"/>
    <path d="M61.6023 40.9445C61.9897 40.9445 62.3037 40.6304 62.3037 40.243C62.3037 39.8556 61.9897 39.5415 61.6023 39.5415C61.2148 39.5415 60.9008 39.8556 60.9008 40.243C60.9008 40.6304 61.2148 40.9445 61.6023 40.9445Z" fill="#D83620"/>
    <path d="M25.7375 43.1941C26.1249 43.1941 26.439 42.8801 26.439 42.4926C26.439 42.1052 26.1249 41.7911 25.7375 41.7911C25.3501 41.7911 25.036 42.1052 25.036 42.4926C25.036 42.8801 25.3501 43.1941 25.7375 43.1941Z" fill="#D83620"/>
    <path d="M44.46 31.9058C44.8475 31.9058 45.1615 31.5917 45.1615 31.2043C45.1615 30.8169 44.8475 30.5028 44.46 30.5028C44.0726 30.5028 43.7585 30.8169 43.7585 31.2043C43.7585 31.5917 44.0726 31.9058 44.46 31.9058Z" fill="#D83620"/>
    <path d="M40.3237 64.3598C40.7111 64.3598 41.0252 64.0457 41.0252 63.6583C41.0252 63.2709 40.7111 62.9568 40.3237 62.9568C39.9363 62.9568 39.6222 63.2709 39.6222 63.6583C39.6222 64.0457 39.9363 64.3598 40.3237 64.3598Z" fill="#D83620"/>
    <path d="M39.6221 57.3207C40.0096 57.3207 40.3236 57.0066 40.3236 56.6192C40.3236 56.2318 40.0096 55.9177 39.6221 55.9177C39.2347 55.9177 38.9207 56.2318 38.9207 56.6192C38.9207 57.0066 39.2347 57.3207 39.6221 57.3207Z" fill="#D83620"/>
    <path d="M45.1616 60.6991C45.549 60.6991 45.8631 60.3851 45.8631 59.9976C45.8631 59.6102 45.549 59.2961 45.1616 59.2961C44.7742 59.2961 44.4601 59.6102 44.4601 59.9976C44.4601 60.3851 44.7742 60.6991 45.1616 60.6991Z" fill="#D83620"/>
    <path d="M45.1616 56.6192C45.549 56.6192 45.8631 56.3051 45.8631 55.9177C45.8631 55.5303 45.549 55.2162 45.1616 55.2162C44.7742 55.2162 44.4601 55.5303 44.4601 55.9177C44.4601 56.3051 44.7742 56.6192 45.1616 56.6192Z" fill="#D83620"/>
    <path d="M24.3345 49.4833C24.722 49.4833 25.036 49.1692 25.036 48.7818C25.036 48.3944 24.722 48.0803 24.3345 48.0803C23.9471 48.0803 23.6331 48.3944 23.6331 48.7818C23.6331 49.1692 23.9471 49.4833 24.3345 49.4833Z" fill="#D83620"/>
    <path d="M33.4459 55.2162C33.8333 55.2162 34.1474 54.9021 34.1474 54.5147C34.1474 54.1273 33.8333 53.8132 33.4459 53.8132C33.0585 53.8132 32.7444 54.1273 32.7444 54.5147C32.7444 54.9021 33.0585 55.2162 33.4459 55.2162Z" fill="#D83620"/>
    <path d="M34.994 61.4007C35.3814 61.4007 35.6955 61.0866 35.6955 60.6992C35.6955 60.3117 35.3814 59.9977 34.994 59.9977C34.6066 59.9977 34.2925 60.3117 34.2925 60.6992C34.2925 61.0866 34.6066 61.4007 34.994 61.4007Z" fill="#D83620"/>
  </g>
  <defs>
    <radialGradient id="paint0_radial_192_4560" cx="0" cy="0" r="1" gradientUnits="userSpaceOnUse" gradientTransform="translate(46.5 46.5) scale(32.0509)">
      <stop stop-color="#FDEEE5"/>
      <stop offset="1" stop-color="#F19280"/>
    </radialGradient>
    <clipPath id="clip0_192_4560">
      <rect width="93" height="93" fill="white"/>
    </clipPath>
  </defs>
</svg>