<svg xmlns="http://www.w3.org/2000/svg" width="22" height="22" viewBox="0 0 22 22" fill="none">
  <g clip-path="url(#clip0_34_777)">
    <path d="M11 11.5225L13.09 12.7875C13.2917 12.9158 13.4933 12.9114 13.695 12.7743C13.8967 12.6372 13.97 12.4491 13.915 12.21L13.365 9.8175L15.235 8.195C15.4183 8.03 15.4733 7.8331 15.4 7.6043C15.3267 7.3755 15.1617 7.25157 14.905 7.2325L12.4575 7.04L11.495 4.785C11.4033 4.565 11.2383 4.455 11 4.455C10.7617 4.455 10.5967 4.565 10.505 4.785L9.5425 7.04L7.095 7.2325C6.83834 7.25084 6.67334 7.37477 6.6 7.6043C6.52667 7.83384 6.58167 8.03074 6.765 8.195L8.635 9.8175L8.085 12.21C8.03 12.4483 8.10334 12.6364 8.305 12.7743C8.50667 12.9122 8.70834 12.9166 8.91 12.7875L11 11.5225ZM4.4 17.6L1.87 20.13C1.52167 20.4783 1.12274 20.5564 0.673202 20.3643C0.223668 20.1722 -0.000731542 19.8282 1.79153e-06 19.3325V2.2C1.79153e-06 1.595 0.215602 1.0769 0.646802 0.645702C1.078 0.214502 1.59574 -0.000731466 2.2 1.86757e-06H19.8C20.405 1.86757e-06 20.9231 0.215602 21.3543 0.646802C21.7855 1.078 22.0007 1.59574 22 2.2V15.4C22 16.005 21.7844 16.5231 21.3532 16.9543C20.922 17.3855 20.4043 17.6007 19.8 17.6H4.4ZM3.465 15.4H19.8V2.2H2.2V16.6375L3.465 15.4Z" fill="#AEAEAE"/>
  </g>
  <defs>
    <clipPath id="clip0_34_777">
      <rect width="22" height="22" fill="white"/>
    </clipPath>
  </defs>
</svg>