<svg xmlns="http://www.w3.org/2000/svg" width="60" height="11" viewBox="0 0 60 11" fill="none">
  <path d="M11.0983 4.99576L8.80802 6.99451L9.49407 9.97029C9.53038 10.1259 9.52002 10.2887 9.46429 10.4384C9.40856 10.5881 9.30994 10.7181 9.18075 10.812C9.05157 10.906 8.89755 10.9598 8.73795 10.9667C8.57836 10.9736 8.42027 10.9333 8.28345 10.8508L5.68802 9.27662L3.09818 10.8508C2.96136 10.9333 2.80327 10.9736 2.64367 10.9667C2.48407 10.9598 2.33005 10.906 2.20087 10.812C2.07168 10.7181 1.97306 10.5881 1.91733 10.4384C1.86161 10.2887 1.85125 10.1259 1.88755 9.97029L2.57259 6.99756L0.281847 4.99576C0.160688 4.89126 0.0730765 4.75332 0.0300006 4.59923C-0.0130752 4.44514 -0.00969825 4.28176 0.039708 4.12959C0.0891142 3.97741 0.18235 3.84321 0.307724 3.74381C0.433098 3.64441 0.585029 3.58423 0.744464 3.57084L3.76392 3.30931L4.94255 0.498063C5.0041 0.350551 5.10792 0.224549 5.24093 0.13592C5.37395 0.0472916 5.53021 0 5.69005 0C5.84989 0 6.00615 0.0472916 6.13917 0.13592C6.27218 0.224549 6.376 0.350551 6.43755 0.498063L7.61974 3.30931L10.6382 3.57084C10.7976 3.58423 10.9495 3.64441 11.0749 3.74381C11.2003 3.84321 11.2935 3.97741 11.3429 4.12959C11.3923 4.28176 11.3957 4.44514 11.3526 4.59923C11.3096 4.75332 11.222 4.89126 11.1008 4.99576H11.0983Z" fill="#F6C944"/>
  <path d="M23.0983 4.99576L20.808 6.99451L21.4941 9.97029C21.5304 10.1259 21.52 10.2887 21.4643 10.4384C21.4086 10.5881 21.3099 10.7181 21.1808 10.812C21.0516 10.906 20.8975 10.9598 20.738 10.9667C20.5784 10.9736 20.4203 10.9333 20.2834 10.8508L17.688 9.27662L15.0982 10.8508C14.9614 10.9333 14.8033 10.9736 14.6437 10.9667C14.4841 10.9598 14.3301 10.906 14.2009 10.812C14.0717 10.7181 13.9731 10.5881 13.9173 10.4384C13.8616 10.2887 13.8512 10.1259 13.8876 9.97029L14.5726 6.99756L12.2818 4.99576C12.1607 4.89126 12.0731 4.75332 12.03 4.59923C11.9869 4.44514 11.9903 4.28176 12.0397 4.12959C12.0891 3.97741 12.1824 3.84321 12.3077 3.74381C12.4331 3.64441 12.585 3.58423 12.7445 3.57084L15.7639 3.30931L16.9426 0.498063C17.0041 0.350551 17.1079 0.224549 17.2409 0.13592C17.3739 0.0472916 17.5302 0 17.6901 0C17.8499 0 18.0062 0.0472916 18.1392 0.13592C18.2722 0.224549 18.376 0.350551 18.4376 0.498063L19.6197 3.30931L22.6382 3.57084C22.7976 3.58423 22.9495 3.64441 23.0749 3.74381C23.2003 3.84321 23.2935 3.97741 23.3429 4.12959C23.3923 4.28176 23.3957 4.44514 23.3526 4.59923C23.3096 4.75332 23.222 4.89126 23.1008 4.99576H23.0983Z" fill="#F6C944"/>
  <path d="M35.0983 4.99576L32.808 6.99451L33.4941 9.97029C33.5304 10.1259 33.52 10.2887 33.4643 10.4384C33.4086 10.5881 33.3099 10.7181 33.1808 10.812C33.0516 10.906 32.8975 10.9598 32.738 10.9667C32.5784 10.9736 32.4203 10.9333 32.2834 10.8508L29.688 9.27662L27.0982 10.8508C26.9614 10.9333 26.8033 10.9736 26.6437 10.9667C26.4841 10.9598 26.3301 10.906 26.2009 10.812C26.0717 10.7181 25.9731 10.5881 25.9173 10.4384C25.8616 10.2887 25.8512 10.1259 25.8876 9.97029L26.5726 6.99756L24.2818 4.99576C24.1607 4.89126 24.0731 4.75332 24.03 4.59923C23.9869 4.44514 23.9903 4.28176 24.0397 4.12959C24.0891 3.97741 24.1824 3.84321 24.3077 3.74381C24.4331 3.64441 24.585 3.58423 24.7445 3.57084L27.7639 3.30931L28.9426 0.498063C29.0041 0.350551 29.1079 0.224549 29.2409 0.13592C29.3739 0.0472916 29.5302 0 29.6901 0C29.8499 0 30.0062 0.0472916 30.1392 0.13592C30.2722 0.224549 30.376 0.350551 30.4376 0.498063L31.6197 3.30931L34.6382 3.57084C34.7976 3.58423 34.9495 3.64441 35.0749 3.74381C35.2003 3.84321 35.2935 3.97741 35.3429 4.12959C35.3923 4.28176 35.3957 4.44514 35.3526 4.59923C35.3096 4.75332 35.222 4.89126 35.1008 4.99576H35.0983Z" fill="#F6C944"/>
  <path d="M47.0983 4.99576L44.808 6.99451L45.4941 9.97029C45.5304 10.1259 45.52 10.2887 45.4643 10.4384C45.4086 10.5881 45.3099 10.7181 45.1808 10.812C45.0516 10.906 44.8975 10.9598 44.738 10.9667C44.5784 10.9736 44.4203 10.9333 44.2834 10.8508L41.688 9.27662L39.0982 10.8508C38.9614 10.9333 38.8033 10.9736 38.6437 10.9667C38.4841 10.9598 38.3301 10.906 38.2009 10.812C38.0717 10.7181 37.9731 10.5881 37.9173 10.4384C37.8616 10.2887 37.8512 10.1259 37.8876 9.97029L38.5726 6.99756L36.2818 4.99576C36.1607 4.89126 36.0731 4.75332 36.03 4.59923C35.9869 4.44514 35.9903 4.28176 36.0397 4.12959C36.0891 3.97741 36.1824 3.84321 36.3077 3.74381C36.4331 3.64441 36.585 3.58423 36.7445 3.57084L39.7639 3.30931L40.9426 0.498063C41.0041 0.350551 41.1079 0.224549 41.2409 0.13592C41.3739 0.0472916 41.5302 0 41.6901 0C41.8499 0 42.0062 0.0472916 42.1392 0.13592C42.2722 0.224549 42.376 0.350551 42.4376 0.498063L43.6197 3.30931L46.6382 3.57084C46.7976 3.58423 46.9495 3.64441 47.0749 3.74381C47.2003 3.84321 47.2935 3.97741 47.3429 4.12959C47.3923 4.28176 47.3957 4.44514 47.3526 4.59923C47.3096 4.75332 47.222 4.89126 47.1008 4.99576H47.0983Z" fill="#F6C944"/>
  <path d="M59.0983 4.99576L56.808 6.99451L57.4941 9.97029C57.5304 10.1259 57.52 10.2887 57.4643 10.4384C57.4086 10.5881 57.3099 10.7181 57.1808 10.812C57.0516 10.906 56.8975 10.9598 56.738 10.9667C56.5784 10.9736 56.4203 10.9333 56.2834 10.8508L53.688 9.27662L51.0982 10.8508C50.9614 10.9333 50.8033 10.9736 50.6437 10.9667C50.4841 10.9598 50.3301 10.906 50.2009 10.812C50.0717 10.7181 49.9731 10.5881 49.9173 10.4384C49.8616 10.2887 49.8512 10.1259 49.8876 9.97029L50.5726 6.99756L48.2818 4.99576C48.1607 4.89126 48.0731 4.75332 48.03 4.59923C47.9869 4.44514 47.9903 4.28176 48.0397 4.12959C48.0891 3.97741 48.1824 3.84321 48.3077 3.74381C48.4331 3.64441 48.585 3.58423 48.7445 3.57084L51.7639 3.30931L52.9426 0.498063C53.0041 0.350551 53.1079 0.224549 53.2409 0.13592C53.3739 0.0472916 53.5302 0 53.6901 0C53.8499 0 54.0062 0.0472916 54.1392 0.13592C54.2722 0.224549 54.376 0.350551 54.4376 0.498063L55.6197 3.30931L58.6382 3.57084C58.7976 3.58423 58.9495 3.64441 59.0749 3.74381C59.2003 3.84321 59.2935 3.97741 59.3429 4.12959C59.3923 4.28176 59.3957 4.44514 59.3526 4.59923C59.3096 4.75332 59.222 4.89126 59.1008 4.99576H59.0983Z" fill="url(#paint0_linear_13_1461)"/>
  <defs>
    <linearGradient id="paint0_linear_13_1461" x1="49" y1="5" x2="57.5" y2="5" gradientUnits="userSpaceOnUse">
      <stop offset="0.760317" stop-color="#F6C944"/>
      <stop offset="0.760417" stop-color="#DBDBDB"/>
    </linearGradient>
  </defs>
</svg>