<svg width="15" height="19" viewBox="0 0 15 19" fill="none" xmlns="http://www.w3.org/2000/svg">
<path d="M7.71875 5.34375C7.71875 5.18628 7.65619 5.03526 7.54485 4.92391C7.4335 4.81256 7.28247 4.75 7.125 4.75C6.96753 4.75 6.81651 4.81256 6.70516 4.92391C6.59381 5.03526 6.53125 5.18628 6.53125 5.34375V6.09662L5.87931 5.72019C5.81176 5.68059 5.73704 5.65474 5.65946 5.64413C5.58188 5.63352 5.50297 5.63836 5.42726 5.65838C5.35156 5.67839 5.28056 5.71318 5.21836 5.76075C5.15616 5.80831 5.10398 5.86771 5.06483 5.93552C5.02568 6.00334 5.00032 6.07822 4.99023 6.15587C4.98014 6.23353 4.9855 6.31241 5.00602 6.38797C5.02654 6.46354 5.0618 6.53431 5.10977 6.59619C5.15775 6.65808 5.21749 6.70986 5.28556 6.74856L5.9375 7.125L5.28556 7.50144C5.21749 7.54014 5.15775 7.59192 5.10977 7.65381C5.0618 7.71569 5.02654 7.78646 5.00602 7.86203C4.9855 7.93759 4.98014 8.01647 4.99023 8.09413C5.00032 8.17178 5.02568 8.24666 5.06483 8.31448C5.10398 8.38229 5.15616 8.44169 5.21836 8.48925C5.28056 8.53682 5.35156 8.57161 5.42726 8.59162C5.50297 8.61164 5.58188 8.61648 5.65946 8.60587C5.73704 8.59526 5.81176 8.56941 5.87931 8.52981L6.53125 8.15338V8.90625C6.53125 9.06372 6.59381 9.21475 6.70516 9.32609C6.81651 9.43744 6.96753 9.5 7.125 9.5C7.28247 9.5 7.4335 9.43744 7.54485 9.32609C7.65619 9.21475 7.71875 9.06372 7.71875 8.90625V8.15338L8.37069 8.52981C8.43824 8.56941 8.51296 8.59526 8.59054 8.60587C8.66812 8.61648 8.74703 8.61164 8.82274 8.59162C8.89844 8.57161 8.96944 8.53682 9.03164 8.48925C9.09384 8.44169 9.14602 8.38229 9.18517 8.31448C9.22432 8.24666 9.24968 8.17178 9.25977 8.09413C9.26986 8.01647 9.2645 7.93759 9.24398 7.86203C9.22346 7.78646 9.1882 7.71569 9.14023 7.65381C9.09225 7.59192 9.03251 7.54014 8.96444 7.50144L8.3125 7.125L8.96444 6.74856C9.03251 6.70986 9.09225 6.65808 9.14023 6.59619C9.1882 6.53431 9.22346 6.46354 9.24398 6.38797C9.2645 6.31241 9.26986 6.23353 9.25977 6.15587C9.24968 6.07822 9.22432 6.00334 9.18517 5.93552C9.14602 5.86771 9.09384 5.80831 9.03164 5.76075C8.96944 5.71318 8.89844 5.67839 8.82274 5.65838C8.74703 5.63836 8.66812 5.63352 8.59054 5.64413C8.51296 5.65474 8.43824 5.68059 8.37069 5.72019L7.71875 6.09662V5.34375ZM4.15625 10.6875C3.99878 10.6875 3.84776 10.7501 3.73641 10.8614C3.62506 10.9728 3.5625 11.1238 3.5625 11.2812C3.5625 11.4387 3.62506 11.5897 3.73641 11.7011C3.84776 11.8124 3.99878 11.875 4.15625 11.875H10.0938C10.2512 11.875 10.4022 11.8124 10.5136 11.7011C10.6249 11.5897 10.6875 11.4387 10.6875 11.2812C10.6875 11.1238 10.6249 10.9728 10.5136 10.8614C10.4022 10.7501 10.2512 10.6875 10.0938 10.6875H4.15625ZM4.15625 13.0625C3.99878 13.0625 3.84776 13.1251 3.73641 13.2364C3.62506 13.3478 3.5625 13.4988 3.5625 13.6562C3.5625 13.8137 3.62506 13.9647 3.73641 14.0761C3.84776 14.1874 3.99878 14.25 4.15625 14.25H10.0938C10.2512 14.25 10.4022 14.1874 10.5136 14.0761C10.6249 13.9647 10.6875 13.8137 10.6875 13.6562C10.6875 13.4988 10.6249 13.3478 10.5136 13.2364C10.4022 13.1251 10.2512 13.0625 10.0938 13.0625H4.15625Z" fill="#888888"/>
<path d="M0 2.375C0 1.74511 0.250222 1.14102 0.695621 0.695621C1.14102 0.250223 1.74511 0 2.375 0L11.875 0C12.5049 0 13.109 0.250223 13.5544 0.695621C13.9998 1.14102 14.25 1.74511 14.25 2.375V16.625C14.25 17.2549 13.9998 17.859 13.5544 18.3044C13.109 18.7498 12.5049 19 11.875 19H2.375C1.74511 19 1.14102 18.7498 0.695621 18.3044C0.250222 17.859 0 17.2549 0 16.625V2.375ZM11.875 1.1875H2.375C2.06006 1.1875 1.75801 1.31261 1.53531 1.53531C1.31261 1.75801 1.1875 2.06006 1.1875 2.375V16.625C1.1875 16.9399 1.31261 17.242 1.53531 17.4647C1.75801 17.6874 2.06006 17.8125 2.375 17.8125H11.875C12.1899 17.8125 12.492 17.6874 12.7147 17.4647C12.9374 17.242 13.0625 16.9399 13.0625 16.625V2.375C13.0625 2.06006 12.9374 1.75801 12.7147 1.53531C12.492 1.31261 12.1899 1.1875 11.875 1.1875Z" fill="#888888"/>
</svg>
