<svg width="32" height="31" viewBox="0 0 32 31" fill="none" xmlns="http://www.w3.org/2000/svg">
<ellipse cx="16" cy="15.5" rx="16" ry="15.5" fill="white"/>
<path d="M16.9503 24.498H15.0497C14.4122 24.4975 13.8009 24.244 13.3501 23.7932C12.8993 23.3424 12.6458 22.7311 12.6453 22.0936V18.8245L9.40544 18.8537C8.7679 18.8529 8.15668 18.5994 7.70578 18.1487C7.25487 17.6979 7.00107 17.0868 7 16.4493V14.5487C7.0008 13.911 7.25449 13.2996 7.70542 12.8487C8.15636 12.3978 8.76772 12.1441 9.40544 12.1433H12.6745L12.6453 8.90443C12.6458 8.2669 12.8993 7.65564 13.3501 7.20483C13.8009 6.75403 14.4122 6.50053 15.0497 6.5H16.9503C17.5878 6.50053 18.1991 6.75403 18.6499 7.20483C19.1007 7.65564 19.3542 8.2669 19.3547 8.90443V12.1735L22.5946 12.1433C23.2323 12.1441 23.8436 12.3978 24.2946 12.8487C24.7455 13.2996 24.9992 13.911 25 14.5487V16.4493C24.9989 17.0868 24.7451 17.6979 24.2942 18.1487C23.8433 18.5994 23.2321 18.8529 22.5946 18.8537H19.3255L19.3537 22.0936C19.3532 22.7309 19.0998 23.342 18.6492 23.7928C18.1987 24.2436 17.5876 24.4972 16.9503 24.498Z" fill="#43BBFF"/>
</svg>
