<svg xmlns="http://www.w3.org/2000/svg" width="18" height="19" viewBox="0 0 18 19" fill="none">
  <path d="M9.95029 18.498H8.04972C7.41218 18.4975 6.80092 18.244 6.35011 17.7932C5.89931 17.3424 5.64581 16.7311 5.64528 16.0936V12.8245L2.40544 12.8537C1.7679 12.8529 1.15668 12.5994 0.705776 12.1487C0.254871 11.6979 0.00106652 11.0868 0 10.4493V8.54871C0.00079998 7.91099 0.254488 7.29962 0.705421 6.84869C1.15636 6.39775 1.76772 6.14407 2.40544 6.14327H5.6745L5.64528 2.90443C5.64581 2.2669 5.89931 1.65564 6.35011 1.20483C6.80092 0.754029 7.41218 0.500534 8.04972 0.5H9.95029C10.5878 0.500534 11.1991 0.754029 11.6499 1.20483C12.1007 1.65564 12.3542 2.2669 12.3547 2.90443V6.1735L15.5946 6.14327C16.2323 6.14407 16.8436 6.39775 17.2946 6.84869C17.7455 7.29962 17.9992 7.91099 18 8.54871V10.4493C17.9989 11.0868 17.7451 11.6979 17.2942 12.1487C16.8433 12.5994 16.2321 12.8529 15.5946 12.8537H12.3255L12.3537 16.0936C12.3532 16.7309 12.0998 17.342 11.6492 17.7928C11.1987 18.2436 10.5876 18.4972 9.95029 18.498Z" fill="#888888"/>
</svg>